%TF.GenerationSoftware,KiCad,Pcbnew,(6.0.4-0)*%
%TF.CreationDate,2022-11-11T12:05:06+01:00*%
%TF.ProjectId,DGPS_0.1,44475053-5f30-42e3-912e-6b696361645f,rev?*%
%TF.SameCoordinates,Original*%
%TF.FileFunction,Copper,L2,Bot*%
%TF.FilePolarity,Positive*%
%FSLAX46Y46*%
G04 Gerber Fmt 4.6, Leading zero omitted, Abs format (unit mm)*
G04 Created by KiCad (PCBNEW (6.0.4-0)) date 2022-11-11 12:05:06*
%MOMM*%
%LPD*%
G01*
G04 APERTURE LIST*
%TA.AperFunction,ComponentPad*%
%ADD10R,1.700000X1.700000*%
%TD*%
%TA.AperFunction,ComponentPad*%
%ADD11R,2.200000X2.200000*%
%TD*%
%TA.AperFunction,ComponentPad*%
%ADD12O,2.200000X2.200000*%
%TD*%
%TA.AperFunction,ComponentPad*%
%ADD13O,1.700000X1.700000*%
%TD*%
%TA.AperFunction,ComponentPad*%
%ADD14R,1.800000X1.800000*%
%TD*%
%TA.AperFunction,ComponentPad*%
%ADD15C,1.800000*%
%TD*%
%TA.AperFunction,ComponentPad*%
%ADD16R,1.070000X1.800000*%
%TD*%
%TA.AperFunction,ComponentPad*%
%ADD17O,1.070000X1.800000*%
%TD*%
%TA.AperFunction,ComponentPad*%
%ADD18C,1.700000*%
%TD*%
%TA.AperFunction,ComponentPad*%
%ADD19R,3.000000X3.000000*%
%TD*%
%TA.AperFunction,ComponentPad*%
%ADD20C,3.000000*%
%TD*%
%TA.AperFunction,ViaPad*%
%ADD21C,0.800000*%
%TD*%
%TA.AperFunction,Conductor*%
%ADD22C,0.500000*%
%TD*%
G04 APERTURE END LIST*
D10*
X138049000Y-74803000D03*
D11*
X134874000Y-59182000D03*
D12*
X134874000Y-49022000D03*
D10*
X137414000Y-82184000D03*
D13*
X137414000Y-84724000D03*
X137414000Y-87264000D03*
D10*
X159256000Y-46746000D03*
D13*
X161796000Y-46746000D03*
X164336000Y-46746000D03*
X166876000Y-46746000D03*
D10*
X114823000Y-96622000D03*
D13*
X117363000Y-96622000D03*
X119903000Y-96622000D03*
D14*
X149474000Y-48895000D03*
D15*
X152014000Y-48895000D03*
D10*
X123736000Y-64535000D03*
D13*
X121196000Y-64535000D03*
X118656000Y-64535000D03*
X116116000Y-64535000D03*
D16*
X181526000Y-52670000D03*
D17*
X182796000Y-52670000D03*
X184066000Y-52670000D03*
X185336000Y-52670000D03*
D18*
X142315000Y-93635000D03*
D10*
X135815000Y-93635000D03*
D18*
X135815000Y-98135000D03*
X142315000Y-98135000D03*
D19*
X139738000Y-46574000D03*
D20*
X144818000Y-46574000D03*
D21*
X142748000Y-52959000D03*
X114046000Y-91821000D03*
X153670000Y-52959000D03*
X125603000Y-97155000D03*
X122809000Y-85852000D03*
X124206000Y-68961000D03*
X178181000Y-41656000D03*
X127381000Y-68961000D03*
X121412000Y-86995000D03*
X125603000Y-86974500D03*
X174371000Y-42164000D03*
X181229000Y-47752000D03*
X166751000Y-58166000D03*
X135001000Y-73152000D03*
X117810000Y-76408000D03*
X116586000Y-75311000D03*
X137414000Y-91059000D03*
X133477000Y-84963000D03*
D22*
X113919000Y-91694000D02*
X114046000Y-91821000D01*
X118656000Y-64535000D02*
X113919000Y-69272000D01*
X113919000Y-69272000D02*
X113919000Y-91694000D01*
X153670000Y-52959000D02*
X142748000Y-52959000D01*
X122809000Y-85852000D02*
X125603000Y-88646000D01*
X125603000Y-88646000D02*
X125603000Y-97155000D01*
X156972000Y-45339000D02*
X158242000Y-44069000D01*
X175768000Y-44069000D02*
X178181000Y-41656000D01*
X158242000Y-44069000D02*
X175006000Y-44069000D01*
X156972000Y-53086000D02*
X156972000Y-45339000D01*
X141097000Y-68961000D02*
X156845000Y-53213000D01*
X156845000Y-53213000D02*
X156972000Y-53086000D01*
X121412000Y-71755000D02*
X124206000Y-68961000D01*
X127381000Y-68961000D02*
X141097000Y-68961000D01*
X121412000Y-86995000D02*
X121412000Y-71755000D01*
X175006000Y-44069000D02*
X175768000Y-44069000D01*
X128778000Y-42164000D02*
X125603000Y-45339000D01*
X174371000Y-42164000D02*
X128778000Y-42164000D01*
X125603000Y-45339000D02*
X125603000Y-86974500D01*
X170815000Y-58166000D02*
X166751000Y-58166000D01*
X181229000Y-47752000D02*
X170815000Y-58166000D01*
X135001000Y-83566000D02*
X136159000Y-84724000D01*
X135001000Y-73152000D02*
X135001000Y-83566000D01*
X136159000Y-84724000D02*
X137414000Y-84724000D01*
X119903000Y-93487000D02*
X119903000Y-96622000D01*
X117810000Y-76408000D02*
X117810000Y-91394000D01*
X117810000Y-91394000D02*
X119903000Y-93487000D01*
X116586000Y-75311000D02*
X116586000Y-92456000D01*
X116586000Y-92456000D02*
X117363000Y-93233000D01*
X117363000Y-93233000D02*
X117363000Y-96622000D01*
X161796000Y-66677000D02*
X161796000Y-46746000D01*
X137414000Y-91059000D02*
X161796000Y-66677000D01*
X133477000Y-94361000D02*
X133477000Y-84963000D01*
X135255000Y-96139000D02*
X133477000Y-94361000D01*
X164336000Y-69090000D02*
X164336000Y-75567000D01*
X143764000Y-96139000D02*
X135255000Y-96139000D01*
X164336000Y-46746000D02*
X164336000Y-69090000D01*
X164336000Y-75567000D02*
X143764000Y-96139000D01*
%TA.AperFunction,Conductor*%
G36*
X195902387Y-40528502D02*
G01*
X195948880Y-40582158D01*
X195958984Y-40652432D01*
X195929490Y-40717012D01*
X195894967Y-40744914D01*
X195669688Y-40868763D01*
X195653221Y-40877816D01*
X195397860Y-41063346D01*
X195167767Y-41279418D01*
X194966568Y-41522625D01*
X194797438Y-41789131D01*
X194795754Y-41792710D01*
X194795750Y-41792717D01*
X194685244Y-42027556D01*
X194663044Y-42074734D01*
X194565505Y-42374928D01*
X194506359Y-42684980D01*
X194488833Y-42963559D01*
X194486540Y-43000000D01*
X194506359Y-43315020D01*
X194565505Y-43625072D01*
X194663044Y-43925266D01*
X194664731Y-43928852D01*
X194664733Y-43928856D01*
X194795750Y-44207283D01*
X194795754Y-44207290D01*
X194797438Y-44210869D01*
X194966568Y-44477375D01*
X195039308Y-44565302D01*
X195155173Y-44705358D01*
X195167767Y-44720582D01*
X195397860Y-44936654D01*
X195653221Y-45122184D01*
X195656690Y-45124091D01*
X195656693Y-45124093D01*
X195924124Y-45271115D01*
X195929821Y-45274247D01*
X195933490Y-45275700D01*
X195933495Y-45275702D01*
X196219386Y-45388894D01*
X196223298Y-45390443D01*
X196529025Y-45468940D01*
X196842179Y-45508500D01*
X197157821Y-45508500D01*
X197470975Y-45468940D01*
X197776702Y-45390443D01*
X197780614Y-45388894D01*
X198066505Y-45275702D01*
X198066510Y-45275700D01*
X198070179Y-45274247D01*
X198075876Y-45271115D01*
X198343307Y-45124093D01*
X198343310Y-45124091D01*
X198346779Y-45122184D01*
X198602140Y-44936654D01*
X198832233Y-44720582D01*
X198844828Y-44705358D01*
X198960692Y-44565302D01*
X199033432Y-44477375D01*
X199202562Y-44210869D01*
X199251492Y-44106887D01*
X199298594Y-44053766D01*
X199366939Y-44034543D01*
X199434827Y-44055322D01*
X199480704Y-44109505D01*
X199491500Y-44160535D01*
X199491500Y-59310000D01*
X199471498Y-59378121D01*
X199417842Y-59424614D01*
X199365500Y-59436000D01*
X172593000Y-59436000D01*
X172466000Y-59563000D01*
X172466036Y-59573584D01*
X172592928Y-96879687D01*
X172593000Y-96901000D01*
X194361990Y-96901000D01*
X194430111Y-96921002D01*
X194476604Y-96974658D01*
X194487741Y-97019089D01*
X194506359Y-97315020D01*
X194565505Y-97625072D01*
X194663044Y-97925266D01*
X194664731Y-97928852D01*
X194664733Y-97928856D01*
X194795750Y-98207283D01*
X194795754Y-98207290D01*
X194797438Y-98210869D01*
X194966568Y-98477375D01*
X195167767Y-98720582D01*
X195397860Y-98936654D01*
X195401062Y-98938981D01*
X195401064Y-98938982D01*
X195407957Y-98943990D01*
X195653221Y-99122184D01*
X195656690Y-99124091D01*
X195656693Y-99124093D01*
X195894967Y-99255086D01*
X195945026Y-99305431D01*
X195959919Y-99374848D01*
X195934918Y-99441297D01*
X195877961Y-99483681D01*
X195834266Y-99491500D01*
X143146411Y-99491500D01*
X143078290Y-99471498D01*
X143031797Y-99417842D01*
X143021693Y-99347568D01*
X143051187Y-99282988D01*
X143073243Y-99262921D01*
X143093703Y-99248327D01*
X143194860Y-99176173D01*
X143353096Y-99018489D01*
X143412594Y-98935689D01*
X143480435Y-98841277D01*
X143483453Y-98837077D01*
X143542537Y-98717530D01*
X143580136Y-98641453D01*
X143580137Y-98641451D01*
X143582430Y-98636811D01*
X143647370Y-98423069D01*
X143676529Y-98201590D01*
X143677532Y-98160535D01*
X143678074Y-98138365D01*
X143678074Y-98138361D01*
X143678156Y-98135000D01*
X143659852Y-97912361D01*
X143605431Y-97695702D01*
X143516354Y-97490840D01*
X143421959Y-97344928D01*
X143397822Y-97307617D01*
X143397820Y-97307614D01*
X143395014Y-97303277D01*
X143244670Y-97138051D01*
X143232517Y-97128453D01*
X143224829Y-97122381D01*
X143183767Y-97064464D01*
X143180536Y-96993541D01*
X143216161Y-96932130D01*
X143279333Y-96899728D01*
X143302922Y-96897500D01*
X143696930Y-96897500D01*
X143715880Y-96898933D01*
X143730115Y-96901099D01*
X143730119Y-96901099D01*
X143737349Y-96902199D01*
X143744641Y-96901606D01*
X143744644Y-96901606D01*
X143790018Y-96897915D01*
X143800233Y-96897500D01*
X143808293Y-96897500D01*
X143821583Y-96895951D01*
X143836507Y-96894211D01*
X143840882Y-96893778D01*
X143906339Y-96888454D01*
X143906342Y-96888453D01*
X143913637Y-96887860D01*
X143920601Y-96885604D01*
X143926560Y-96884413D01*
X143932415Y-96883029D01*
X143939681Y-96882182D01*
X144008327Y-96857265D01*
X144012455Y-96855848D01*
X144074936Y-96835607D01*
X144074938Y-96835606D01*
X144081899Y-96833351D01*
X144088154Y-96829555D01*
X144093628Y-96827049D01*
X144099058Y-96824330D01*
X144105937Y-96821833D01*
X144112058Y-96817820D01*
X144166976Y-96781814D01*
X144170680Y-96779477D01*
X144233107Y-96741595D01*
X144241484Y-96734197D01*
X144241508Y-96734224D01*
X144244500Y-96731571D01*
X144247733Y-96728868D01*
X144253852Y-96724856D01*
X144307128Y-96668617D01*
X144309506Y-96666175D01*
X164824911Y-76150770D01*
X164839323Y-76138384D01*
X164850918Y-76129851D01*
X164850923Y-76129846D01*
X164856818Y-76125508D01*
X164861557Y-76119930D01*
X164861560Y-76119927D01*
X164891035Y-76085232D01*
X164897965Y-76077716D01*
X164903660Y-76072021D01*
X164921281Y-76049749D01*
X164924072Y-76046345D01*
X164966591Y-75996297D01*
X164966592Y-75996295D01*
X164971333Y-75990715D01*
X164974661Y-75984199D01*
X164978028Y-75979150D01*
X164981195Y-75974021D01*
X164985734Y-75968284D01*
X165016655Y-75902125D01*
X165018561Y-75898225D01*
X165022099Y-75891297D01*
X165051769Y-75833192D01*
X165053508Y-75826084D01*
X165055607Y-75820441D01*
X165057524Y-75814678D01*
X165060622Y-75808050D01*
X165075487Y-75736583D01*
X165076457Y-75732299D01*
X165093808Y-75661390D01*
X165094500Y-75650236D01*
X165094536Y-75650238D01*
X165094775Y-75646245D01*
X165095149Y-75642053D01*
X165096640Y-75634885D01*
X165094546Y-75557479D01*
X165094500Y-75554072D01*
X165094500Y-58166000D01*
X165837496Y-58166000D01*
X165857458Y-58355928D01*
X165916473Y-58537556D01*
X166011960Y-58702944D01*
X166016378Y-58707851D01*
X166016379Y-58707852D01*
X166107286Y-58808814D01*
X166139747Y-58844866D01*
X166192025Y-58882848D01*
X166288904Y-58953235D01*
X166294248Y-58957118D01*
X166300276Y-58959802D01*
X166300278Y-58959803D01*
X166462681Y-59032109D01*
X166468712Y-59034794D01*
X166562112Y-59054647D01*
X166649056Y-59073128D01*
X166649061Y-59073128D01*
X166655513Y-59074500D01*
X166846487Y-59074500D01*
X166852939Y-59073128D01*
X166852944Y-59073128D01*
X166939888Y-59054647D01*
X167033288Y-59034794D01*
X167039319Y-59032109D01*
X167201722Y-58959803D01*
X167201724Y-58959802D01*
X167207752Y-58957118D01*
X167213091Y-58953239D01*
X167213098Y-58953235D01*
X167219528Y-58948563D01*
X167293587Y-58924500D01*
X170747930Y-58924500D01*
X170766880Y-58925933D01*
X170781115Y-58928099D01*
X170781119Y-58928099D01*
X170788349Y-58929199D01*
X170795641Y-58928606D01*
X170795644Y-58928606D01*
X170841018Y-58924915D01*
X170851233Y-58924500D01*
X170859293Y-58924500D01*
X170872583Y-58922951D01*
X170887507Y-58921211D01*
X170891882Y-58920778D01*
X170957339Y-58915454D01*
X170957342Y-58915453D01*
X170964637Y-58914860D01*
X170971601Y-58912604D01*
X170977560Y-58911413D01*
X170983415Y-58910029D01*
X170990681Y-58909182D01*
X171059327Y-58884265D01*
X171063455Y-58882848D01*
X171125936Y-58862607D01*
X171125938Y-58862606D01*
X171132899Y-58860351D01*
X171139154Y-58856555D01*
X171144628Y-58854049D01*
X171150058Y-58851330D01*
X171156937Y-58848833D01*
X171217976Y-58808814D01*
X171221680Y-58806477D01*
X171284107Y-58768595D01*
X171292484Y-58761197D01*
X171292508Y-58761224D01*
X171295500Y-58758571D01*
X171298733Y-58755868D01*
X171304852Y-58751856D01*
X171358128Y-58695617D01*
X171360506Y-58693175D01*
X176435547Y-53618134D01*
X180482500Y-53618134D01*
X180489255Y-53680316D01*
X180540385Y-53816705D01*
X180627739Y-53933261D01*
X180744295Y-54020615D01*
X180880684Y-54071745D01*
X180942866Y-54078500D01*
X182109134Y-54078500D01*
X182171316Y-54071745D01*
X182284242Y-54029411D01*
X182299303Y-54023765D01*
X182299304Y-54023764D01*
X182307705Y-54020615D01*
X182312467Y-54017046D01*
X182380338Y-54002201D01*
X182408750Y-54007525D01*
X182585160Y-54062133D01*
X182591282Y-54062776D01*
X182591285Y-54062777D01*
X182782551Y-54082879D01*
X182782553Y-54082879D01*
X182788680Y-54083523D01*
X182874066Y-54075752D01*
X182986339Y-54065535D01*
X182986342Y-54065534D01*
X182992478Y-54064976D01*
X182998384Y-54063238D01*
X182998388Y-54063237D01*
X183113319Y-54029411D01*
X183188793Y-54007198D01*
X183194251Y-54004345D01*
X183194255Y-54004343D01*
X183370147Y-53912388D01*
X183370880Y-53913789D01*
X183431442Y-53895457D01*
X183492420Y-53910618D01*
X183654440Y-53998223D01*
X183665755Y-54002979D01*
X183794692Y-54042892D01*
X183808795Y-54043098D01*
X183812000Y-54036343D01*
X183812000Y-53302888D01*
X183817899Y-53264787D01*
X183819774Y-53258878D01*
X183819775Y-53258871D01*
X183821636Y-53253006D01*
X183839500Y-53093744D01*
X183839500Y-53086495D01*
X184292500Y-53086495D01*
X184307420Y-53238664D01*
X184309202Y-53244566D01*
X184314622Y-53262518D01*
X184320000Y-53298936D01*
X184320000Y-54029411D01*
X184323973Y-54042942D01*
X184331768Y-54044062D01*
X184452686Y-54008474D01*
X184464070Y-54003875D01*
X184639872Y-53911968D01*
X184640716Y-53913583D01*
X184700460Y-53895497D01*
X184761439Y-53910657D01*
X184929671Y-54001619D01*
X185125160Y-54062133D01*
X185131282Y-54062776D01*
X185131285Y-54062777D01*
X185322551Y-54082879D01*
X185322553Y-54082879D01*
X185328680Y-54083523D01*
X185414066Y-54075752D01*
X185526339Y-54065535D01*
X185526342Y-54065534D01*
X185532478Y-54064976D01*
X185538384Y-54063238D01*
X185538388Y-54063237D01*
X185653319Y-54029411D01*
X185728793Y-54007198D01*
X185734251Y-54004345D01*
X185734255Y-54004343D01*
X185859928Y-53938642D01*
X185910147Y-53912388D01*
X185931156Y-53895497D01*
X186064824Y-53788025D01*
X186069631Y-53784160D01*
X186201172Y-53627396D01*
X186299758Y-53448067D01*
X186361636Y-53253006D01*
X186379500Y-53093744D01*
X186379500Y-52253505D01*
X186364580Y-52101336D01*
X186305432Y-51905429D01*
X186209359Y-51724742D01*
X186205469Y-51719972D01*
X186205466Y-51719968D01*
X186083915Y-51570932D01*
X186083912Y-51570929D01*
X186080020Y-51566157D01*
X186038373Y-51531703D01*
X186001181Y-51500935D01*
X185922341Y-51435713D01*
X185742329Y-51338381D01*
X185546840Y-51277867D01*
X185540718Y-51277224D01*
X185540715Y-51277223D01*
X185349449Y-51257121D01*
X185349447Y-51257121D01*
X185343320Y-51256477D01*
X185284072Y-51261869D01*
X185145661Y-51274465D01*
X185145658Y-51274466D01*
X185139522Y-51275024D01*
X185133616Y-51276762D01*
X185133612Y-51276763D01*
X185065186Y-51296902D01*
X184943207Y-51332802D01*
X184937749Y-51335655D01*
X184937745Y-51335657D01*
X184761853Y-51427612D01*
X184761120Y-51426211D01*
X184700558Y-51444543D01*
X184639580Y-51429382D01*
X184477560Y-51341777D01*
X184466245Y-51337021D01*
X184337308Y-51297108D01*
X184323205Y-51296902D01*
X184320000Y-51303657D01*
X184320000Y-52037112D01*
X184314101Y-52075213D01*
X184312226Y-52081122D01*
X184312225Y-52081129D01*
X184310364Y-52086994D01*
X184292500Y-52246256D01*
X184292500Y-53086495D01*
X183839500Y-53086495D01*
X183839500Y-52253505D01*
X183824580Y-52101336D01*
X183817378Y-52077482D01*
X183812000Y-52041064D01*
X183812000Y-51310589D01*
X183808027Y-51297058D01*
X183800232Y-51295938D01*
X183679314Y-51331526D01*
X183667930Y-51336125D01*
X183492128Y-51428032D01*
X183491284Y-51426417D01*
X183431540Y-51444503D01*
X183370561Y-51429343D01*
X183202329Y-51338381D01*
X183006840Y-51277867D01*
X183000718Y-51277224D01*
X183000715Y-51277223D01*
X182809449Y-51257121D01*
X182809447Y-51257121D01*
X182803320Y-51256477D01*
X182744072Y-51261869D01*
X182605661Y-51274465D01*
X182605658Y-51274466D01*
X182599522Y-51275024D01*
X182593616Y-51276762D01*
X182593612Y-51276763D01*
X182524486Y-51297108D01*
X182405500Y-51332127D01*
X182334504Y-51332172D01*
X182312716Y-51323140D01*
X182307705Y-51319385D01*
X182299304Y-51316236D01*
X182299301Y-51316234D01*
X182187881Y-51274465D01*
X182171316Y-51268255D01*
X182109134Y-51261500D01*
X180942866Y-51261500D01*
X180880684Y-51268255D01*
X180744295Y-51319385D01*
X180627739Y-51406739D01*
X180540385Y-51523295D01*
X180489255Y-51659684D01*
X180482500Y-51721866D01*
X180482500Y-53618134D01*
X176435547Y-53618134D01*
X181385331Y-48668350D01*
X181448228Y-48634199D01*
X181504824Y-48622169D01*
X181504833Y-48622166D01*
X181511288Y-48620794D01*
X181594228Y-48583867D01*
X181679722Y-48545803D01*
X181679724Y-48545802D01*
X181685752Y-48543118D01*
X181691601Y-48538869D01*
X181741157Y-48502864D01*
X181840253Y-48430866D01*
X181968040Y-48288944D01*
X182040376Y-48163654D01*
X182060223Y-48129279D01*
X182060224Y-48129278D01*
X182063527Y-48123556D01*
X182122542Y-47941928D01*
X182124757Y-47920860D01*
X182141814Y-47758565D01*
X182142504Y-47752000D01*
X182138520Y-47714090D01*
X182123232Y-47568635D01*
X182123232Y-47568633D01*
X182122542Y-47562072D01*
X182063527Y-47380444D01*
X181968040Y-47215056D01*
X181863520Y-47098974D01*
X181844675Y-47078045D01*
X181844674Y-47078044D01*
X181840253Y-47073134D01*
X181685752Y-46960882D01*
X181679724Y-46958198D01*
X181679722Y-46958197D01*
X181517319Y-46885891D01*
X181517318Y-46885891D01*
X181511288Y-46883206D01*
X181417887Y-46863353D01*
X181330944Y-46844872D01*
X181330939Y-46844872D01*
X181324487Y-46843500D01*
X181133513Y-46843500D01*
X181127061Y-46844872D01*
X181127056Y-46844872D01*
X181040113Y-46863353D01*
X180946712Y-46883206D01*
X180940682Y-46885891D01*
X180940681Y-46885891D01*
X180778278Y-46958197D01*
X180778276Y-46958198D01*
X180772248Y-46960882D01*
X180617747Y-47073134D01*
X180613326Y-47078044D01*
X180613325Y-47078045D01*
X180594481Y-47098974D01*
X180489960Y-47215056D01*
X180394473Y-47380444D01*
X180345786Y-47530288D01*
X180339613Y-47549285D01*
X180308875Y-47599444D01*
X170537724Y-57370595D01*
X170475412Y-57404621D01*
X170448629Y-57407500D01*
X167293587Y-57407500D01*
X167219528Y-57383437D01*
X167213098Y-57378765D01*
X167213091Y-57378761D01*
X167207752Y-57374882D01*
X167201724Y-57372198D01*
X167201722Y-57372197D01*
X167039319Y-57299891D01*
X167039318Y-57299891D01*
X167033288Y-57297206D01*
X166939887Y-57277353D01*
X166852944Y-57258872D01*
X166852939Y-57258872D01*
X166846487Y-57257500D01*
X166655513Y-57257500D01*
X166649061Y-57258872D01*
X166649056Y-57258872D01*
X166562113Y-57277353D01*
X166468712Y-57297206D01*
X166462682Y-57299891D01*
X166462681Y-57299891D01*
X166300278Y-57372197D01*
X166300276Y-57372198D01*
X166294248Y-57374882D01*
X166288907Y-57378762D01*
X166288906Y-57378763D01*
X166282473Y-57383437D01*
X166139747Y-57487134D01*
X166135326Y-57492044D01*
X166135325Y-57492045D01*
X166055901Y-57580255D01*
X166011960Y-57629056D01*
X165916473Y-57794444D01*
X165857458Y-57976072D01*
X165856768Y-57982633D01*
X165856768Y-57982635D01*
X165838186Y-58159435D01*
X165837496Y-58166000D01*
X165094500Y-58166000D01*
X165094500Y-47938632D01*
X165114502Y-47870511D01*
X165147331Y-47836054D01*
X165215860Y-47787173D01*
X165261843Y-47741351D01*
X165370435Y-47633137D01*
X165374096Y-47629489D01*
X165395686Y-47599444D01*
X165504453Y-47448077D01*
X165505640Y-47448930D01*
X165552960Y-47405362D01*
X165622897Y-47393145D01*
X165688338Y-47420678D01*
X165716166Y-47452511D01*
X165773694Y-47546388D01*
X165779777Y-47554699D01*
X165919213Y-47715667D01*
X165926580Y-47722883D01*
X166090434Y-47858916D01*
X166098881Y-47864831D01*
X166282756Y-47972279D01*
X166292042Y-47976729D01*
X166491001Y-48052703D01*
X166500899Y-48055579D01*
X166604250Y-48076606D01*
X166618299Y-48075410D01*
X166622000Y-48065065D01*
X166622000Y-48064517D01*
X167130000Y-48064517D01*
X167134064Y-48078359D01*
X167147478Y-48080393D01*
X167154184Y-48079534D01*
X167164262Y-48077392D01*
X167368255Y-48016191D01*
X167377842Y-48012433D01*
X167569095Y-47918739D01*
X167577945Y-47913464D01*
X167751328Y-47789792D01*
X167759200Y-47783139D01*
X167910052Y-47632812D01*
X167916730Y-47624965D01*
X168041003Y-47452020D01*
X168046313Y-47443183D01*
X168140670Y-47252267D01*
X168144469Y-47242672D01*
X168206377Y-47038910D01*
X168208555Y-47028837D01*
X168209986Y-47017962D01*
X168207775Y-47003778D01*
X168194617Y-47000000D01*
X167148115Y-47000000D01*
X167132876Y-47004475D01*
X167131671Y-47005865D01*
X167130000Y-47013548D01*
X167130000Y-48064517D01*
X166622000Y-48064517D01*
X166622000Y-46473885D01*
X167130000Y-46473885D01*
X167134475Y-46489124D01*
X167135865Y-46490329D01*
X167143548Y-46492000D01*
X168194344Y-46492000D01*
X168207875Y-46488027D01*
X168209180Y-46478947D01*
X168167214Y-46311875D01*
X168163894Y-46302124D01*
X168078972Y-46106814D01*
X168074105Y-46097739D01*
X167958426Y-45918926D01*
X167952136Y-45910757D01*
X167808806Y-45753240D01*
X167801273Y-45746215D01*
X167634139Y-45614222D01*
X167625552Y-45608517D01*
X167439117Y-45505599D01*
X167429705Y-45501369D01*
X167228959Y-45430280D01*
X167218988Y-45427646D01*
X167147837Y-45414972D01*
X167134540Y-45416432D01*
X167130000Y-45430989D01*
X167130000Y-46473885D01*
X166622000Y-46473885D01*
X166622000Y-45429102D01*
X166618082Y-45415758D01*
X166603806Y-45413771D01*
X166565324Y-45419660D01*
X166555288Y-45422051D01*
X166352868Y-45488212D01*
X166343359Y-45492209D01*
X166154463Y-45590542D01*
X166145738Y-45596036D01*
X165975433Y-45723905D01*
X165967726Y-45730748D01*
X165820590Y-45884717D01*
X165814109Y-45892722D01*
X165709498Y-46046074D01*
X165654587Y-46091076D01*
X165584062Y-46099247D01*
X165520315Y-46067993D01*
X165499618Y-46043509D01*
X165418822Y-45918617D01*
X165418820Y-45918614D01*
X165416014Y-45914277D01*
X165265670Y-45749051D01*
X165261619Y-45745852D01*
X165261615Y-45745848D01*
X165094414Y-45613800D01*
X165094410Y-45613798D01*
X165090359Y-45610598D01*
X165054028Y-45590542D01*
X165038136Y-45581769D01*
X164894789Y-45502638D01*
X164889920Y-45500914D01*
X164889916Y-45500912D01*
X164689087Y-45429795D01*
X164689083Y-45429794D01*
X164684212Y-45428069D01*
X164679119Y-45427162D01*
X164679116Y-45427161D01*
X164469373Y-45389800D01*
X164469367Y-45389799D01*
X164464284Y-45388894D01*
X164390452Y-45387992D01*
X164246081Y-45386228D01*
X164246079Y-45386228D01*
X164240911Y-45386165D01*
X164020091Y-45419955D01*
X163807756Y-45489357D01*
X163609607Y-45592507D01*
X163605474Y-45595610D01*
X163605471Y-45595612D01*
X163459286Y-45705371D01*
X163430965Y-45726635D01*
X163427393Y-45730373D01*
X163319729Y-45843037D01*
X163276629Y-45888138D01*
X163169201Y-46045621D01*
X163114293Y-46090621D01*
X163043768Y-46098792D01*
X162980021Y-46067538D01*
X162959324Y-46043054D01*
X162878822Y-45918617D01*
X162878820Y-45918614D01*
X162876014Y-45914277D01*
X162725670Y-45749051D01*
X162721619Y-45745852D01*
X162721615Y-45745848D01*
X162554414Y-45613800D01*
X162554410Y-45613798D01*
X162550359Y-45610598D01*
X162514028Y-45590542D01*
X162498136Y-45581769D01*
X162354789Y-45502638D01*
X162349920Y-45500914D01*
X162349916Y-45500912D01*
X162149087Y-45429795D01*
X162149083Y-45429794D01*
X162144212Y-45428069D01*
X162139119Y-45427162D01*
X162139116Y-45427161D01*
X161929373Y-45389800D01*
X161929367Y-45389799D01*
X161924284Y-45388894D01*
X161850452Y-45387992D01*
X161706081Y-45386228D01*
X161706079Y-45386228D01*
X161700911Y-45386165D01*
X161480091Y-45419955D01*
X161267756Y-45489357D01*
X161069607Y-45592507D01*
X161065474Y-45595610D01*
X161065471Y-45595612D01*
X160919286Y-45705371D01*
X160890965Y-45726635D01*
X160834537Y-45785684D01*
X160810283Y-45811064D01*
X160748759Y-45846494D01*
X160677846Y-45843037D01*
X160620060Y-45801791D01*
X160601207Y-45768243D01*
X160559767Y-45657703D01*
X160556615Y-45649295D01*
X160469261Y-45532739D01*
X160352705Y-45445385D01*
X160216316Y-45394255D01*
X160154134Y-45387500D01*
X158357866Y-45387500D01*
X158354471Y-45387869D01*
X158354467Y-45387869D01*
X158307803Y-45392938D01*
X158237920Y-45380409D01*
X158185905Y-45332088D01*
X158168271Y-45263316D01*
X158190618Y-45195928D01*
X158205101Y-45178580D01*
X158519276Y-44864405D01*
X158581588Y-44830379D01*
X158608371Y-44827500D01*
X175700930Y-44827500D01*
X175719880Y-44828933D01*
X175734115Y-44831099D01*
X175734119Y-44831099D01*
X175741349Y-44832199D01*
X175748641Y-44831606D01*
X175748644Y-44831606D01*
X175794018Y-44827915D01*
X175804233Y-44827500D01*
X175812293Y-44827500D01*
X175825583Y-44825951D01*
X175840507Y-44824211D01*
X175844882Y-44823778D01*
X175910339Y-44818454D01*
X175910342Y-44818453D01*
X175917637Y-44817860D01*
X175924601Y-44815604D01*
X175930560Y-44814413D01*
X175936415Y-44813029D01*
X175943681Y-44812182D01*
X176012327Y-44787265D01*
X176016455Y-44785848D01*
X176078936Y-44765607D01*
X176078938Y-44765606D01*
X176085899Y-44763351D01*
X176092154Y-44759555D01*
X176097628Y-44757049D01*
X176103058Y-44754330D01*
X176109937Y-44751833D01*
X176116058Y-44747820D01*
X176170976Y-44711814D01*
X176174680Y-44709477D01*
X176237107Y-44671595D01*
X176245484Y-44664197D01*
X176245508Y-44664224D01*
X176248500Y-44661571D01*
X176251733Y-44658868D01*
X176257852Y-44654856D01*
X176311128Y-44598617D01*
X176313506Y-44596175D01*
X178337331Y-42572350D01*
X178400228Y-42538199D01*
X178456824Y-42526169D01*
X178456833Y-42526166D01*
X178463288Y-42524794D01*
X178475536Y-42519341D01*
X178631722Y-42449803D01*
X178631724Y-42449802D01*
X178637752Y-42447118D01*
X178792253Y-42334866D01*
X178796675Y-42329955D01*
X178915621Y-42197852D01*
X178915622Y-42197851D01*
X178920040Y-42192944D01*
X179015527Y-42027556D01*
X179074542Y-41845928D01*
X179094504Y-41656000D01*
X179085339Y-41568803D01*
X179075232Y-41472635D01*
X179075232Y-41472633D01*
X179074542Y-41466072D01*
X179015527Y-41284444D01*
X178920040Y-41119056D01*
X178867783Y-41061018D01*
X178796675Y-40982045D01*
X178796674Y-40982044D01*
X178792253Y-40977134D01*
X178637752Y-40864882D01*
X178631724Y-40862198D01*
X178631722Y-40862197D01*
X178469319Y-40789891D01*
X178469318Y-40789891D01*
X178463288Y-40787206D01*
X178324695Y-40757747D01*
X178262222Y-40724018D01*
X178227900Y-40661869D01*
X178232628Y-40591030D01*
X178274904Y-40533992D01*
X178341305Y-40508865D01*
X178350892Y-40508500D01*
X195834266Y-40508500D01*
X195902387Y-40528502D01*
G37*
%TD.AperFunction*%
%TA.AperFunction,Conductor*%
G36*
X178079229Y-40528502D02*
G01*
X178125722Y-40582158D01*
X178135826Y-40652432D01*
X178106332Y-40717012D01*
X178046606Y-40755396D01*
X178037305Y-40757747D01*
X177898712Y-40787206D01*
X177892682Y-40789891D01*
X177892681Y-40789891D01*
X177730278Y-40862197D01*
X177730276Y-40862198D01*
X177724248Y-40864882D01*
X177569747Y-40977134D01*
X177565326Y-40982044D01*
X177565325Y-40982045D01*
X177494218Y-41061018D01*
X177441960Y-41119056D01*
X177346473Y-41284444D01*
X177301352Y-41423313D01*
X177291613Y-41453285D01*
X177260875Y-41503444D01*
X175490724Y-43273595D01*
X175428412Y-43307621D01*
X175401629Y-43310500D01*
X174545597Y-43310500D01*
X174477476Y-43290498D01*
X174430983Y-43236842D01*
X174420879Y-43166568D01*
X174450373Y-43101988D01*
X174510099Y-43063604D01*
X174519400Y-43061253D01*
X174535090Y-43057918D01*
X174653288Y-43032794D01*
X174726945Y-43000000D01*
X174821722Y-42957803D01*
X174821724Y-42957802D01*
X174827752Y-42955118D01*
X174833097Y-42951235D01*
X174883157Y-42914864D01*
X174982253Y-42842866D01*
X175110040Y-42700944D01*
X175205527Y-42535556D01*
X175264542Y-42353928D01*
X175266138Y-42338749D01*
X175283814Y-42170565D01*
X175284504Y-42164000D01*
X175276723Y-42089968D01*
X175265232Y-41980635D01*
X175265232Y-41980633D01*
X175264542Y-41974072D01*
X175205527Y-41792444D01*
X175110040Y-41627056D01*
X175070783Y-41583456D01*
X174986675Y-41490045D01*
X174986674Y-41490044D01*
X174982253Y-41485134D01*
X174872647Y-41405500D01*
X174833094Y-41376763D01*
X174833093Y-41376762D01*
X174827752Y-41372882D01*
X174821724Y-41370198D01*
X174821722Y-41370197D01*
X174659319Y-41297891D01*
X174659318Y-41297891D01*
X174653288Y-41295206D01*
X174559888Y-41275353D01*
X174472944Y-41256872D01*
X174472939Y-41256872D01*
X174466487Y-41255500D01*
X174275513Y-41255500D01*
X174269061Y-41256872D01*
X174269056Y-41256872D01*
X174182112Y-41275353D01*
X174088712Y-41295206D01*
X174082682Y-41297891D01*
X174082681Y-41297891D01*
X173920278Y-41370197D01*
X173920276Y-41370198D01*
X173914248Y-41372882D01*
X173908909Y-41376761D01*
X173908902Y-41376765D01*
X173902472Y-41381437D01*
X173828413Y-41405500D01*
X128845070Y-41405500D01*
X128826120Y-41404067D01*
X128811885Y-41401901D01*
X128811881Y-41401901D01*
X128804651Y-41400801D01*
X128797359Y-41401394D01*
X128797356Y-41401394D01*
X128751982Y-41405085D01*
X128741767Y-41405500D01*
X128733707Y-41405500D01*
X128720417Y-41407049D01*
X128705493Y-41408789D01*
X128701118Y-41409222D01*
X128635661Y-41414546D01*
X128635658Y-41414547D01*
X128628363Y-41415140D01*
X128621399Y-41417396D01*
X128615440Y-41418587D01*
X128609585Y-41419971D01*
X128602319Y-41420818D01*
X128533673Y-41445735D01*
X128529545Y-41447152D01*
X128467064Y-41467393D01*
X128467062Y-41467394D01*
X128460101Y-41469649D01*
X128453846Y-41473445D01*
X128448372Y-41475951D01*
X128442942Y-41478670D01*
X128436063Y-41481167D01*
X128429943Y-41485180D01*
X128429942Y-41485180D01*
X128375024Y-41521186D01*
X128371320Y-41523523D01*
X128308893Y-41561405D01*
X128300516Y-41568803D01*
X128300492Y-41568776D01*
X128297500Y-41571429D01*
X128294267Y-41574132D01*
X128288148Y-41578144D01*
X128283116Y-41583456D01*
X128234872Y-41634383D01*
X128232494Y-41636825D01*
X125114089Y-44755230D01*
X125099677Y-44767616D01*
X125088082Y-44776149D01*
X125088077Y-44776154D01*
X125082182Y-44780492D01*
X125077443Y-44786070D01*
X125077440Y-44786073D01*
X125047965Y-44820768D01*
X125041035Y-44828284D01*
X125035340Y-44833979D01*
X125033060Y-44836861D01*
X125017719Y-44856251D01*
X125014928Y-44859655D01*
X125010893Y-44864405D01*
X124967667Y-44915285D01*
X124964339Y-44921801D01*
X124960972Y-44926850D01*
X124957805Y-44931979D01*
X124953266Y-44937716D01*
X124922345Y-45003875D01*
X124920442Y-45007769D01*
X124887231Y-45072808D01*
X124885492Y-45079916D01*
X124883393Y-45085559D01*
X124881476Y-45091322D01*
X124878378Y-45097950D01*
X124876888Y-45105112D01*
X124876888Y-45105113D01*
X124863514Y-45169412D01*
X124862544Y-45173696D01*
X124845192Y-45244610D01*
X124844500Y-45255764D01*
X124844464Y-45255762D01*
X124844225Y-45259755D01*
X124843851Y-45263947D01*
X124842360Y-45271115D01*
X124842558Y-45278432D01*
X124844454Y-45348521D01*
X124844500Y-45351928D01*
X124844500Y-63060031D01*
X124824498Y-63128152D01*
X124770842Y-63174645D01*
X124700568Y-63184749D01*
X124700026Y-63184646D01*
X124696316Y-63183255D01*
X124634134Y-63176500D01*
X122837866Y-63176500D01*
X122775684Y-63183255D01*
X122639295Y-63234385D01*
X122522739Y-63321739D01*
X122435385Y-63438295D01*
X122432233Y-63446703D01*
X122390919Y-63556907D01*
X122348277Y-63613671D01*
X122281716Y-63638371D01*
X122212367Y-63623163D01*
X122179743Y-63597476D01*
X122129151Y-63541875D01*
X122129142Y-63541866D01*
X122125670Y-63538051D01*
X122121619Y-63534852D01*
X122121615Y-63534848D01*
X121954414Y-63402800D01*
X121954410Y-63402798D01*
X121950359Y-63399598D01*
X121914028Y-63379542D01*
X121898136Y-63370769D01*
X121754789Y-63291638D01*
X121749920Y-63289914D01*
X121749916Y-63289912D01*
X121549087Y-63218795D01*
X121549083Y-63218794D01*
X121544212Y-63217069D01*
X121539119Y-63216162D01*
X121539116Y-63216161D01*
X121329373Y-63178800D01*
X121329367Y-63178799D01*
X121324284Y-63177894D01*
X121250452Y-63176992D01*
X121106081Y-63175228D01*
X121106079Y-63175228D01*
X121100911Y-63175165D01*
X120880091Y-63208955D01*
X120667756Y-63278357D01*
X120469607Y-63381507D01*
X120465474Y-63384610D01*
X120465471Y-63384612D01*
X120295100Y-63512530D01*
X120290965Y-63515635D01*
X120265541Y-63542240D01*
X120197280Y-63613671D01*
X120136629Y-63677138D01*
X120029201Y-63834621D01*
X119974293Y-63879621D01*
X119903768Y-63887792D01*
X119840021Y-63856538D01*
X119819324Y-63832054D01*
X119738822Y-63707617D01*
X119738820Y-63707614D01*
X119736014Y-63703277D01*
X119585670Y-63538051D01*
X119581619Y-63534852D01*
X119581615Y-63534848D01*
X119414414Y-63402800D01*
X119414410Y-63402798D01*
X119410359Y-63399598D01*
X119374028Y-63379542D01*
X119358136Y-63370769D01*
X119214789Y-63291638D01*
X119209920Y-63289914D01*
X119209916Y-63289912D01*
X119009087Y-63218795D01*
X119009083Y-63218794D01*
X119004212Y-63217069D01*
X118999119Y-63216162D01*
X118999116Y-63216161D01*
X118789373Y-63178800D01*
X118789367Y-63178799D01*
X118784284Y-63177894D01*
X118710452Y-63176992D01*
X118566081Y-63175228D01*
X118566079Y-63175228D01*
X118560911Y-63175165D01*
X118340091Y-63208955D01*
X118127756Y-63278357D01*
X117929607Y-63381507D01*
X117925474Y-63384610D01*
X117925471Y-63384612D01*
X117755100Y-63512530D01*
X117750965Y-63515635D01*
X117725541Y-63542240D01*
X117657280Y-63613671D01*
X117596629Y-63677138D01*
X117593720Y-63681403D01*
X117593714Y-63681411D01*
X117581404Y-63699457D01*
X117489204Y-63834618D01*
X117488898Y-63835066D01*
X117433987Y-63880069D01*
X117363462Y-63888240D01*
X117299715Y-63856986D01*
X117279018Y-63832502D01*
X117198426Y-63707926D01*
X117192136Y-63699757D01*
X117048806Y-63542240D01*
X117041273Y-63535215D01*
X116874139Y-63403222D01*
X116865552Y-63397517D01*
X116679117Y-63294599D01*
X116669705Y-63290369D01*
X116468959Y-63219280D01*
X116458988Y-63216646D01*
X116387837Y-63203972D01*
X116374540Y-63205432D01*
X116370000Y-63219989D01*
X116370000Y-64663000D01*
X116349998Y-64731121D01*
X116296342Y-64777614D01*
X116244000Y-64789000D01*
X114799225Y-64789000D01*
X114785694Y-64792973D01*
X114784257Y-64802966D01*
X114814565Y-64937446D01*
X114817645Y-64947275D01*
X114897770Y-65144603D01*
X114902413Y-65153794D01*
X115013694Y-65335388D01*
X115019777Y-65343699D01*
X115159213Y-65504667D01*
X115166580Y-65511883D01*
X115330434Y-65647916D01*
X115338881Y-65653831D01*
X115522756Y-65761279D01*
X115532042Y-65765729D01*
X115731001Y-65841703D01*
X115740899Y-65844579D01*
X115953870Y-65887908D01*
X116016636Y-65921090D01*
X116051498Y-65982938D01*
X116047389Y-66053815D01*
X116017845Y-66100474D01*
X113430089Y-68688230D01*
X113415677Y-68700616D01*
X113404082Y-68709149D01*
X113404077Y-68709154D01*
X113398182Y-68713492D01*
X113393443Y-68719070D01*
X113393440Y-68719073D01*
X113363965Y-68753768D01*
X113357035Y-68761284D01*
X113351340Y-68766979D01*
X113349060Y-68769861D01*
X113333719Y-68789251D01*
X113330928Y-68792655D01*
X113288409Y-68842703D01*
X113283667Y-68848285D01*
X113280339Y-68854801D01*
X113276972Y-68859850D01*
X113273805Y-68864979D01*
X113269266Y-68870716D01*
X113238345Y-68936875D01*
X113236442Y-68940769D01*
X113203231Y-69005808D01*
X113201492Y-69012916D01*
X113199393Y-69018559D01*
X113197476Y-69024322D01*
X113194378Y-69030950D01*
X113192888Y-69038112D01*
X113192888Y-69038113D01*
X113179514Y-69102412D01*
X113178544Y-69106696D01*
X113161192Y-69177610D01*
X113160500Y-69188764D01*
X113160464Y-69188762D01*
X113160225Y-69192755D01*
X113159851Y-69196947D01*
X113158360Y-69204115D01*
X113158558Y-69211432D01*
X113160454Y-69281521D01*
X113160500Y-69284928D01*
X113160500Y-91586365D01*
X113155451Y-91618245D01*
X113155871Y-91618334D01*
X113154498Y-91624794D01*
X113152458Y-91631072D01*
X113151768Y-91637633D01*
X113151768Y-91637635D01*
X113133186Y-91814435D01*
X113132496Y-91821000D01*
X113133186Y-91827565D01*
X113151434Y-92001181D01*
X113152458Y-92010928D01*
X113211473Y-92192556D01*
X113306960Y-92357944D01*
X113311378Y-92362851D01*
X113311379Y-92362852D01*
X113421397Y-92485039D01*
X113434747Y-92499866D01*
X113499547Y-92546946D01*
X113580328Y-92605637D01*
X113589248Y-92612118D01*
X113595276Y-92614802D01*
X113595278Y-92614803D01*
X113757681Y-92687109D01*
X113763712Y-92689794D01*
X113857113Y-92709647D01*
X113944056Y-92728128D01*
X113944061Y-92728128D01*
X113950513Y-92729500D01*
X114141487Y-92729500D01*
X114147939Y-92728128D01*
X114147944Y-92728128D01*
X114234887Y-92709647D01*
X114328288Y-92689794D01*
X114334319Y-92687109D01*
X114496722Y-92614803D01*
X114496724Y-92614802D01*
X114502752Y-92612118D01*
X114511673Y-92605637D01*
X114592453Y-92546946D01*
X114657253Y-92499866D01*
X114670603Y-92485039D01*
X114780621Y-92362852D01*
X114780622Y-92362851D01*
X114785040Y-92357944D01*
X114880527Y-92192556D01*
X114939542Y-92010928D01*
X114940567Y-92001181D01*
X114958814Y-91827565D01*
X114959504Y-91821000D01*
X114958814Y-91814435D01*
X114940232Y-91637635D01*
X114940232Y-91637633D01*
X114939542Y-91631072D01*
X114880527Y-91449444D01*
X114785040Y-91284056D01*
X114709864Y-91200565D01*
X114679147Y-91136557D01*
X114677500Y-91116254D01*
X114677500Y-69638371D01*
X114697502Y-69570250D01*
X114714405Y-69549276D01*
X118347441Y-65916240D01*
X118409753Y-65882214D01*
X118461657Y-65881865D01*
X118494597Y-65888567D01*
X118499772Y-65888757D01*
X118499774Y-65888757D01*
X118712673Y-65896564D01*
X118712677Y-65896564D01*
X118717837Y-65896753D01*
X118722957Y-65896097D01*
X118722959Y-65896097D01*
X118934288Y-65869025D01*
X118934289Y-65869025D01*
X118939416Y-65868368D01*
X118944366Y-65866883D01*
X119148429Y-65805661D01*
X119148434Y-65805659D01*
X119153384Y-65804174D01*
X119353994Y-65705896D01*
X119535860Y-65576173D01*
X119694096Y-65418489D01*
X119824453Y-65237077D01*
X119825776Y-65238028D01*
X119872645Y-65194857D01*
X119942580Y-65182625D01*
X120008026Y-65210144D01*
X120035875Y-65241994D01*
X120095987Y-65340088D01*
X120242250Y-65508938D01*
X120414126Y-65651632D01*
X120607000Y-65764338D01*
X120815692Y-65844030D01*
X120820760Y-65845061D01*
X120820763Y-65845062D01*
X120928017Y-65866883D01*
X121034597Y-65888567D01*
X121039772Y-65888757D01*
X121039774Y-65888757D01*
X121252673Y-65896564D01*
X121252677Y-65896564D01*
X121257837Y-65896753D01*
X121262957Y-65896097D01*
X121262959Y-65896097D01*
X121474288Y-65869025D01*
X121474289Y-65869025D01*
X121479416Y-65868368D01*
X121484366Y-65866883D01*
X121688429Y-65805661D01*
X121688434Y-65805659D01*
X121693384Y-65804174D01*
X121893994Y-65705896D01*
X122075860Y-65576173D01*
X122184091Y-65468319D01*
X122246462Y-65434404D01*
X122317268Y-65439592D01*
X122374030Y-65482238D01*
X122391012Y-65513341D01*
X122435385Y-65631705D01*
X122522739Y-65748261D01*
X122639295Y-65835615D01*
X122775684Y-65886745D01*
X122837866Y-65893500D01*
X124634134Y-65893500D01*
X124696316Y-65886745D01*
X124696426Y-65887755D01*
X124760255Y-65891089D01*
X124817898Y-65932535D01*
X124843983Y-65998566D01*
X124844500Y-66009969D01*
X124844500Y-68057373D01*
X124824498Y-68125494D01*
X124770842Y-68171987D01*
X124700568Y-68182091D01*
X124663092Y-68169118D01*
X124662752Y-68169882D01*
X124494319Y-68094891D01*
X124494318Y-68094891D01*
X124488288Y-68092206D01*
X124394887Y-68072353D01*
X124307944Y-68053872D01*
X124307939Y-68053872D01*
X124301487Y-68052500D01*
X124110513Y-68052500D01*
X124104061Y-68053872D01*
X124104056Y-68053872D01*
X124017113Y-68072353D01*
X123923712Y-68092206D01*
X123917682Y-68094891D01*
X123917681Y-68094891D01*
X123755278Y-68167197D01*
X123755276Y-68167198D01*
X123749248Y-68169882D01*
X123743907Y-68173762D01*
X123743906Y-68173763D01*
X123737473Y-68178437D01*
X123594747Y-68282134D01*
X123466960Y-68424056D01*
X123371473Y-68589444D01*
X123318081Y-68753768D01*
X123316613Y-68758285D01*
X123285875Y-68808444D01*
X120923089Y-71171230D01*
X120908677Y-71183616D01*
X120897082Y-71192149D01*
X120897077Y-71192154D01*
X120891182Y-71196492D01*
X120886443Y-71202070D01*
X120886440Y-71202073D01*
X120856965Y-71236768D01*
X120850035Y-71244284D01*
X120844340Y-71249979D01*
X120842060Y-71252861D01*
X120826719Y-71272251D01*
X120823928Y-71275655D01*
X120781409Y-71325703D01*
X120776667Y-71331285D01*
X120773339Y-71337801D01*
X120769972Y-71342850D01*
X120766805Y-71347979D01*
X120762266Y-71353716D01*
X120731345Y-71419875D01*
X120729442Y-71423769D01*
X120696231Y-71488808D01*
X120694492Y-71495916D01*
X120692393Y-71501559D01*
X120690476Y-71507322D01*
X120687378Y-71513950D01*
X120685888Y-71521112D01*
X120685888Y-71521113D01*
X120672514Y-71585412D01*
X120671544Y-71589696D01*
X120654192Y-71660610D01*
X120653500Y-71671764D01*
X120653464Y-71671762D01*
X120653225Y-71675755D01*
X120652851Y-71679947D01*
X120651360Y-71687115D01*
X120651558Y-71694432D01*
X120653454Y-71764521D01*
X120653500Y-71767928D01*
X120653500Y-86458001D01*
X120636619Y-86521001D01*
X120581922Y-86615739D01*
X120577473Y-86623444D01*
X120518458Y-86805072D01*
X120498496Y-86995000D01*
X120499186Y-87001565D01*
X120515614Y-87157865D01*
X120518458Y-87184928D01*
X120577473Y-87366556D01*
X120672960Y-87531944D01*
X120800747Y-87673866D01*
X120899843Y-87745864D01*
X120936531Y-87772519D01*
X120955248Y-87786118D01*
X120961276Y-87788802D01*
X120961278Y-87788803D01*
X121083668Y-87843294D01*
X121129712Y-87863794D01*
X121223112Y-87883647D01*
X121310056Y-87902128D01*
X121310061Y-87902128D01*
X121316513Y-87903500D01*
X121507487Y-87903500D01*
X121513939Y-87902128D01*
X121513944Y-87902128D01*
X121600888Y-87883647D01*
X121694288Y-87863794D01*
X121740332Y-87843294D01*
X121862722Y-87788803D01*
X121862724Y-87788802D01*
X121868752Y-87786118D01*
X121887470Y-87772519D01*
X121924157Y-87745864D01*
X122023253Y-87673866D01*
X122151040Y-87531944D01*
X122246527Y-87366556D01*
X122305542Y-87184928D01*
X122308387Y-87157865D01*
X122324814Y-87001565D01*
X122325504Y-86995000D01*
X122308203Y-86830393D01*
X122320975Y-86760556D01*
X122369477Y-86708710D01*
X122438310Y-86691315D01*
X122484761Y-86702117D01*
X122520677Y-86718108D01*
X122520685Y-86718111D01*
X122526712Y-86720794D01*
X122533167Y-86722166D01*
X122533176Y-86722169D01*
X122589772Y-86734199D01*
X122652669Y-86768350D01*
X124807595Y-88923276D01*
X124841621Y-88985588D01*
X124844500Y-89012371D01*
X124844500Y-96618001D01*
X124827619Y-96681000D01*
X124805366Y-96719544D01*
X124784088Y-96756399D01*
X124768473Y-96783444D01*
X124709458Y-96965072D01*
X124708768Y-96971633D01*
X124708768Y-96971635D01*
X124693240Y-97119376D01*
X124689496Y-97155000D01*
X124690186Y-97161565D01*
X124706333Y-97315191D01*
X124709458Y-97344928D01*
X124768473Y-97526556D01*
X124771776Y-97532278D01*
X124771777Y-97532279D01*
X124796068Y-97574352D01*
X124863960Y-97691944D01*
X124991747Y-97833866D01*
X125067488Y-97888895D01*
X125126902Y-97932062D01*
X125146248Y-97946118D01*
X125152276Y-97948802D01*
X125152278Y-97948803D01*
X125230778Y-97983753D01*
X125320712Y-98023794D01*
X125414112Y-98043647D01*
X125501056Y-98062128D01*
X125501061Y-98062128D01*
X125507513Y-98063500D01*
X125698487Y-98063500D01*
X125704939Y-98062128D01*
X125704944Y-98062128D01*
X125791887Y-98043647D01*
X125885288Y-98023794D01*
X125975222Y-97983753D01*
X126053722Y-97948803D01*
X126053724Y-97948802D01*
X126059752Y-97946118D01*
X126079099Y-97932062D01*
X126138512Y-97888895D01*
X126214253Y-97833866D01*
X126342040Y-97691944D01*
X126409932Y-97574352D01*
X126434223Y-97532279D01*
X126434224Y-97532278D01*
X126437527Y-97526556D01*
X126496542Y-97344928D01*
X126499668Y-97315191D01*
X126515814Y-97161565D01*
X126516504Y-97155000D01*
X126512760Y-97119376D01*
X126497232Y-96971635D01*
X126497232Y-96971633D01*
X126496542Y-96965072D01*
X126437527Y-96783444D01*
X126421913Y-96756399D01*
X126400634Y-96719544D01*
X126378381Y-96681000D01*
X126361500Y-96618001D01*
X126361500Y-88713070D01*
X126362933Y-88694120D01*
X126365099Y-88679885D01*
X126365099Y-88679881D01*
X126366199Y-88672651D01*
X126361915Y-88619982D01*
X126361500Y-88609767D01*
X126361500Y-88601707D01*
X126358209Y-88573480D01*
X126357778Y-88569121D01*
X126352453Y-88503660D01*
X126351860Y-88496364D01*
X126349605Y-88489403D01*
X126348418Y-88483463D01*
X126347029Y-88477588D01*
X126346182Y-88470319D01*
X126321264Y-88401670D01*
X126319847Y-88397542D01*
X126299607Y-88335064D01*
X126299606Y-88335062D01*
X126297351Y-88328101D01*
X126293555Y-88321846D01*
X126291049Y-88316372D01*
X126288330Y-88310942D01*
X126285833Y-88304063D01*
X126245814Y-88243024D01*
X126243467Y-88239305D01*
X126240046Y-88233667D01*
X126205595Y-88176893D01*
X126198197Y-88168516D01*
X126198224Y-88168492D01*
X126195571Y-88165500D01*
X126192868Y-88162267D01*
X126188856Y-88156148D01*
X126132617Y-88102872D01*
X126130175Y-88100494D01*
X126006403Y-87976722D01*
X125972377Y-87914410D01*
X125977442Y-87843595D01*
X126019989Y-87786759D01*
X126044252Y-87772519D01*
X126053720Y-87768304D01*
X126053723Y-87768302D01*
X126059752Y-87765618D01*
X126214253Y-87653366D01*
X126332735Y-87521778D01*
X126337621Y-87516352D01*
X126337622Y-87516351D01*
X126342040Y-87511444D01*
X126437527Y-87346056D01*
X126496542Y-87164428D01*
X126516504Y-86974500D01*
X126501358Y-86830395D01*
X126497232Y-86791135D01*
X126497232Y-86791133D01*
X126496542Y-86784572D01*
X126437527Y-86602944D01*
X126378381Y-86500500D01*
X126361500Y-86437501D01*
X126361500Y-73152000D01*
X134087496Y-73152000D01*
X134107458Y-73341928D01*
X134166473Y-73523556D01*
X134169776Y-73529278D01*
X134169777Y-73529279D01*
X134225619Y-73625999D01*
X134242500Y-73688999D01*
X134242500Y-83498930D01*
X134241067Y-83517880D01*
X134237801Y-83539349D01*
X134238394Y-83546641D01*
X134238394Y-83546644D01*
X134242085Y-83592018D01*
X134242500Y-83602233D01*
X134242500Y-83610293D01*
X134242925Y-83613937D01*
X134245789Y-83638507D01*
X134246222Y-83642882D01*
X134251445Y-83707087D01*
X134252140Y-83715637D01*
X134254396Y-83722601D01*
X134255587Y-83728560D01*
X134256971Y-83734415D01*
X134257818Y-83741681D01*
X134282735Y-83810327D01*
X134284152Y-83814455D01*
X134306649Y-83883899D01*
X134310445Y-83890154D01*
X134312951Y-83895628D01*
X134315670Y-83901058D01*
X134318167Y-83907937D01*
X134322180Y-83914057D01*
X134322180Y-83914058D01*
X134358186Y-83968976D01*
X134360523Y-83972680D01*
X134398405Y-84035107D01*
X134402121Y-84039315D01*
X134402122Y-84039316D01*
X134405803Y-84043484D01*
X134405776Y-84043508D01*
X134408429Y-84046500D01*
X134411132Y-84049733D01*
X134415144Y-84055852D01*
X134420456Y-84060884D01*
X134471383Y-84109128D01*
X134473825Y-84111506D01*
X135575230Y-85212911D01*
X135587616Y-85227323D01*
X135596149Y-85238918D01*
X135596154Y-85238923D01*
X135600492Y-85244818D01*
X135606070Y-85249557D01*
X135606073Y-85249560D01*
X135640768Y-85279035D01*
X135648284Y-85285965D01*
X135653979Y-85291660D01*
X135656861Y-85293940D01*
X135676251Y-85309281D01*
X135679655Y-85312072D01*
X135712857Y-85340279D01*
X135735285Y-85359333D01*
X135741801Y-85362661D01*
X135746850Y-85366028D01*
X135751979Y-85369195D01*
X135757716Y-85373734D01*
X135823875Y-85404655D01*
X135827769Y-85406558D01*
X135892808Y-85439769D01*
X135899916Y-85441508D01*
X135905559Y-85443607D01*
X135911322Y-85445524D01*
X135917950Y-85448622D01*
X135925112Y-85450112D01*
X135925113Y-85450112D01*
X135989412Y-85463486D01*
X135993696Y-85464456D01*
X136064610Y-85481808D01*
X136070212Y-85482156D01*
X136070215Y-85482156D01*
X136075764Y-85482500D01*
X136075762Y-85482536D01*
X136079755Y-85482775D01*
X136083947Y-85483149D01*
X136091115Y-85484640D01*
X136168520Y-85482546D01*
X136171928Y-85482500D01*
X136216491Y-85482500D01*
X136284612Y-85502502D01*
X136313402Y-85529595D01*
X136313987Y-85529088D01*
X136460250Y-85697938D01*
X136632126Y-85840632D01*
X136705955Y-85883774D01*
X136754679Y-85935412D01*
X136767750Y-86005195D01*
X136741019Y-86070967D01*
X136700562Y-86104327D01*
X136692457Y-86108546D01*
X136683738Y-86114036D01*
X136513433Y-86241905D01*
X136505726Y-86248748D01*
X136358590Y-86402717D01*
X136352104Y-86410727D01*
X136232098Y-86586649D01*
X136227000Y-86595623D01*
X136137338Y-86788783D01*
X136133775Y-86798470D01*
X136078389Y-86998183D01*
X136079912Y-87006607D01*
X136092292Y-87010000D01*
X138732344Y-87010000D01*
X138745875Y-87006027D01*
X138747180Y-86996947D01*
X138705214Y-86829875D01*
X138701894Y-86820124D01*
X138616972Y-86624814D01*
X138612105Y-86615739D01*
X138496426Y-86436926D01*
X138490136Y-86428757D01*
X138346806Y-86271240D01*
X138339273Y-86264215D01*
X138172139Y-86132222D01*
X138163556Y-86126520D01*
X138126602Y-86106120D01*
X138076631Y-86055687D01*
X138061859Y-85986245D01*
X138086975Y-85919839D01*
X138114327Y-85893232D01*
X138137797Y-85876491D01*
X138293860Y-85765173D01*
X138452096Y-85607489D01*
X138540372Y-85484640D01*
X138579435Y-85430277D01*
X138582453Y-85426077D01*
X138592099Y-85406561D01*
X138679136Y-85230453D01*
X138679137Y-85230451D01*
X138681430Y-85225811D01*
X138730360Y-85064763D01*
X138744865Y-85017023D01*
X138744865Y-85017021D01*
X138746370Y-85012069D01*
X138775529Y-84790590D01*
X138775957Y-84773072D01*
X138777074Y-84727365D01*
X138777074Y-84727361D01*
X138777156Y-84724000D01*
X138758852Y-84501361D01*
X138704431Y-84284702D01*
X138615354Y-84079840D01*
X138494014Y-83892277D01*
X138480055Y-83876936D01*
X138346798Y-83730488D01*
X138315746Y-83666642D01*
X138324141Y-83596143D01*
X138369317Y-83541375D01*
X138395761Y-83527706D01*
X138502297Y-83487767D01*
X138510705Y-83484615D01*
X138627261Y-83397261D01*
X138714615Y-83280705D01*
X138765745Y-83144316D01*
X138772500Y-83082134D01*
X138772500Y-81285866D01*
X138765745Y-81223684D01*
X138714615Y-81087295D01*
X138627261Y-80970739D01*
X138510705Y-80883385D01*
X138374316Y-80832255D01*
X138312134Y-80825500D01*
X136515866Y-80825500D01*
X136453684Y-80832255D01*
X136317295Y-80883385D01*
X136200739Y-80970739D01*
X136113385Y-81087295D01*
X136062255Y-81223684D01*
X136055500Y-81285866D01*
X136055500Y-83082134D01*
X136062255Y-83144316D01*
X136102556Y-83251819D01*
X136104148Y-83256065D01*
X136109331Y-83326873D01*
X136075410Y-83389241D01*
X136013155Y-83423371D01*
X135942331Y-83418424D01*
X135897071Y-83389390D01*
X135796405Y-83288724D01*
X135762379Y-83226412D01*
X135759500Y-83199629D01*
X135759500Y-75701134D01*
X136690500Y-75701134D01*
X136697255Y-75763316D01*
X136748385Y-75899705D01*
X136835739Y-76016261D01*
X136952295Y-76103615D01*
X137088684Y-76154745D01*
X137150866Y-76161500D01*
X138947134Y-76161500D01*
X139009316Y-76154745D01*
X139145705Y-76103615D01*
X139262261Y-76016261D01*
X139349615Y-75899705D01*
X139400745Y-75763316D01*
X139407500Y-75701134D01*
X139407500Y-73904866D01*
X139400745Y-73842684D01*
X139349615Y-73706295D01*
X139262261Y-73589739D01*
X139145705Y-73502385D01*
X139009316Y-73451255D01*
X138947134Y-73444500D01*
X137150866Y-73444500D01*
X137088684Y-73451255D01*
X136952295Y-73502385D01*
X136835739Y-73589739D01*
X136748385Y-73706295D01*
X136697255Y-73842684D01*
X136690500Y-73904866D01*
X136690500Y-75701134D01*
X135759500Y-75701134D01*
X135759500Y-73688999D01*
X135776381Y-73625999D01*
X135832223Y-73529279D01*
X135832224Y-73529278D01*
X135835527Y-73523556D01*
X135894542Y-73341928D01*
X135914504Y-73152000D01*
X135894542Y-72962072D01*
X135835527Y-72780444D01*
X135740040Y-72615056D01*
X135612253Y-72473134D01*
X135457752Y-72360882D01*
X135451724Y-72358198D01*
X135451722Y-72358197D01*
X135289319Y-72285891D01*
X135289318Y-72285891D01*
X135283288Y-72283206D01*
X135189887Y-72263353D01*
X135102944Y-72244872D01*
X135102939Y-72244872D01*
X135096487Y-72243500D01*
X134905513Y-72243500D01*
X134899061Y-72244872D01*
X134899056Y-72244872D01*
X134812113Y-72263353D01*
X134718712Y-72283206D01*
X134712682Y-72285891D01*
X134712681Y-72285891D01*
X134550278Y-72358197D01*
X134550276Y-72358198D01*
X134544248Y-72360882D01*
X134389747Y-72473134D01*
X134261960Y-72615056D01*
X134166473Y-72780444D01*
X134107458Y-72962072D01*
X134087496Y-73152000D01*
X126361500Y-73152000D01*
X126361500Y-69482411D01*
X126381502Y-69414290D01*
X126435158Y-69367797D01*
X126505432Y-69357693D01*
X126570012Y-69387187D01*
X126596619Y-69419410D01*
X126641960Y-69497944D01*
X126646378Y-69502851D01*
X126646379Y-69502852D01*
X126737286Y-69603814D01*
X126769747Y-69639866D01*
X126822025Y-69677848D01*
X126918904Y-69748235D01*
X126924248Y-69752118D01*
X126930276Y-69754802D01*
X126930278Y-69754803D01*
X127071746Y-69817788D01*
X127098712Y-69829794D01*
X127192112Y-69849647D01*
X127279056Y-69868128D01*
X127279061Y-69868128D01*
X127285513Y-69869500D01*
X127476487Y-69869500D01*
X127482939Y-69868128D01*
X127482944Y-69868128D01*
X127569888Y-69849647D01*
X127663288Y-69829794D01*
X127690254Y-69817788D01*
X127831722Y-69754803D01*
X127831724Y-69754802D01*
X127837752Y-69752118D01*
X127843091Y-69748239D01*
X127843098Y-69748235D01*
X127849528Y-69743563D01*
X127923587Y-69719500D01*
X141029930Y-69719500D01*
X141048880Y-69720933D01*
X141063115Y-69723099D01*
X141063119Y-69723099D01*
X141070349Y-69724199D01*
X141077641Y-69723606D01*
X141077644Y-69723606D01*
X141123018Y-69719915D01*
X141133233Y-69719500D01*
X141141293Y-69719500D01*
X141154583Y-69717951D01*
X141169507Y-69716211D01*
X141173882Y-69715778D01*
X141239339Y-69710454D01*
X141239342Y-69710453D01*
X141246637Y-69709860D01*
X141253601Y-69707604D01*
X141259560Y-69706413D01*
X141265415Y-69705029D01*
X141272681Y-69704182D01*
X141341327Y-69679265D01*
X141345455Y-69677848D01*
X141407936Y-69657607D01*
X141407938Y-69657606D01*
X141414899Y-69655351D01*
X141421154Y-69651555D01*
X141426628Y-69649049D01*
X141432058Y-69646330D01*
X141438937Y-69643833D01*
X141499976Y-69603814D01*
X141503680Y-69601477D01*
X141566107Y-69563595D01*
X141574484Y-69556197D01*
X141574508Y-69556224D01*
X141577500Y-69553571D01*
X141580733Y-69550868D01*
X141586852Y-69546856D01*
X141640128Y-69490617D01*
X141642506Y-69488175D01*
X157460911Y-53669770D01*
X157475323Y-53657384D01*
X157486918Y-53648851D01*
X157486923Y-53648846D01*
X157492818Y-53644508D01*
X157497557Y-53638930D01*
X157497560Y-53638927D01*
X157527035Y-53604232D01*
X157533965Y-53596716D01*
X157539660Y-53591021D01*
X157557281Y-53568749D01*
X157560072Y-53565345D01*
X157602591Y-53515297D01*
X157602592Y-53515295D01*
X157607333Y-53509715D01*
X157610661Y-53503199D01*
X157614028Y-53498150D01*
X157617195Y-53493021D01*
X157621734Y-53487284D01*
X157652655Y-53421125D01*
X157654561Y-53417225D01*
X157687769Y-53352192D01*
X157689508Y-53345084D01*
X157691607Y-53339441D01*
X157693524Y-53333678D01*
X157696622Y-53327050D01*
X157711487Y-53255583D01*
X157712457Y-53251299D01*
X157728473Y-53185845D01*
X157729808Y-53180390D01*
X157730500Y-53169236D01*
X157730536Y-53169238D01*
X157730775Y-53165245D01*
X157731149Y-53161053D01*
X157732640Y-53153885D01*
X157730546Y-53076479D01*
X157730500Y-53073072D01*
X157730500Y-47920860D01*
X157750502Y-47852739D01*
X157804158Y-47806246D01*
X157874432Y-47796142D01*
X157939012Y-47825636D01*
X157957326Y-47845295D01*
X158029749Y-47941928D01*
X158042739Y-47959261D01*
X158159295Y-48046615D01*
X158295684Y-48097745D01*
X158357866Y-48104500D01*
X160154134Y-48104500D01*
X160216316Y-48097745D01*
X160352705Y-48046615D01*
X160469261Y-47959261D01*
X160556615Y-47842705D01*
X160570283Y-47806246D01*
X160600598Y-47725382D01*
X160643240Y-47668618D01*
X160709802Y-47643918D01*
X160779150Y-47659126D01*
X160813817Y-47687114D01*
X160842250Y-47719938D01*
X160989100Y-47841855D01*
X160991985Y-47844250D01*
X161031620Y-47903152D01*
X161037500Y-47941194D01*
X161037500Y-66310629D01*
X161017498Y-66378750D01*
X161000595Y-66399724D01*
X137257669Y-90142650D01*
X137194772Y-90176801D01*
X137138176Y-90188831D01*
X137138167Y-90188834D01*
X137131712Y-90190206D01*
X137125682Y-90192891D01*
X137125681Y-90192891D01*
X136963278Y-90265197D01*
X136963276Y-90265198D01*
X136957248Y-90267882D01*
X136802747Y-90380134D01*
X136674960Y-90522056D01*
X136579473Y-90687444D01*
X136520458Y-90869072D01*
X136500496Y-91059000D01*
X136520458Y-91248928D01*
X136579473Y-91430556D01*
X136674960Y-91595944D01*
X136679378Y-91600851D01*
X136679379Y-91600852D01*
X136706589Y-91631072D01*
X136802747Y-91737866D01*
X136901843Y-91809864D01*
X136926207Y-91827565D01*
X136957248Y-91850118D01*
X136963276Y-91852802D01*
X136963278Y-91852803D01*
X137125681Y-91925109D01*
X137131712Y-91927794D01*
X137225113Y-91947647D01*
X137312056Y-91966128D01*
X137312061Y-91966128D01*
X137318513Y-91967500D01*
X137509487Y-91967500D01*
X137515939Y-91966128D01*
X137515944Y-91966128D01*
X137602887Y-91947647D01*
X137696288Y-91927794D01*
X137702319Y-91925109D01*
X137864722Y-91852803D01*
X137864724Y-91852802D01*
X137870752Y-91850118D01*
X137901794Y-91827565D01*
X137926157Y-91809864D01*
X138025253Y-91737866D01*
X138121411Y-91631072D01*
X138148621Y-91600852D01*
X138148622Y-91600851D01*
X138153040Y-91595944D01*
X138248527Y-91430556D01*
X138303387Y-91261714D01*
X138334125Y-91211556D01*
X162284911Y-67260770D01*
X162299323Y-67248384D01*
X162310918Y-67239851D01*
X162310923Y-67239846D01*
X162316818Y-67235508D01*
X162321557Y-67229930D01*
X162321560Y-67229927D01*
X162351035Y-67195232D01*
X162357965Y-67187716D01*
X162363660Y-67182021D01*
X162381281Y-67159749D01*
X162384072Y-67156345D01*
X162426591Y-67106297D01*
X162426592Y-67106295D01*
X162431333Y-67100715D01*
X162434661Y-67094199D01*
X162438028Y-67089150D01*
X162441195Y-67084021D01*
X162445734Y-67078284D01*
X162476655Y-67012125D01*
X162478561Y-67008225D01*
X162511769Y-66943192D01*
X162513508Y-66936084D01*
X162515607Y-66930441D01*
X162517524Y-66924678D01*
X162520622Y-66918050D01*
X162535487Y-66846583D01*
X162536457Y-66842299D01*
X162552473Y-66776845D01*
X162553808Y-66771390D01*
X162554500Y-66760236D01*
X162554536Y-66760238D01*
X162554775Y-66756245D01*
X162555149Y-66752053D01*
X162556640Y-66744885D01*
X162554546Y-66667479D01*
X162554500Y-66664072D01*
X162554500Y-47938632D01*
X162574502Y-47870511D01*
X162607331Y-47836054D01*
X162675860Y-47787173D01*
X162721843Y-47741351D01*
X162830435Y-47633137D01*
X162834096Y-47629489D01*
X162855686Y-47599444D01*
X162964453Y-47448077D01*
X162965776Y-47449028D01*
X163012645Y-47405857D01*
X163082580Y-47393625D01*
X163148026Y-47421144D01*
X163175875Y-47452994D01*
X163235987Y-47551088D01*
X163382250Y-47719938D01*
X163529100Y-47841855D01*
X163531985Y-47844250D01*
X163571620Y-47903152D01*
X163577500Y-47941194D01*
X163577500Y-75200629D01*
X163557498Y-75268750D01*
X163540595Y-75289724D01*
X143486724Y-95343595D01*
X143424412Y-95377621D01*
X143397629Y-95380500D01*
X135621371Y-95380500D01*
X135553250Y-95360498D01*
X135532276Y-95343595D01*
X135396776Y-95208095D01*
X135362750Y-95145783D01*
X135367815Y-95074968D01*
X135410362Y-95018132D01*
X135476882Y-94993321D01*
X135485871Y-94993000D01*
X135542885Y-94993000D01*
X135558124Y-94988525D01*
X135559329Y-94987135D01*
X135561000Y-94979452D01*
X135561000Y-94974884D01*
X136069000Y-94974884D01*
X136073475Y-94990123D01*
X136074865Y-94991328D01*
X136082548Y-94992999D01*
X136709669Y-94992999D01*
X136716490Y-94992629D01*
X136767352Y-94987105D01*
X136782604Y-94983479D01*
X136903054Y-94938324D01*
X136918649Y-94929786D01*
X137020724Y-94853285D01*
X137033285Y-94840724D01*
X137093894Y-94759853D01*
X141554977Y-94759853D01*
X141560258Y-94766907D01*
X141721756Y-94861279D01*
X141731042Y-94865729D01*
X141930001Y-94941703D01*
X141939899Y-94944579D01*
X142148595Y-94987038D01*
X142158823Y-94988257D01*
X142371650Y-94996062D01*
X142381936Y-94995595D01*
X142593185Y-94968534D01*
X142603262Y-94966392D01*
X142807255Y-94905191D01*
X142816842Y-94901433D01*
X143008098Y-94807738D01*
X143016944Y-94802465D01*
X143064247Y-94768723D01*
X143072648Y-94758023D01*
X143065660Y-94744870D01*
X142327812Y-94007022D01*
X142313868Y-93999408D01*
X142312035Y-93999539D01*
X142305420Y-94003790D01*
X141561737Y-94747473D01*
X141554977Y-94759853D01*
X137093894Y-94759853D01*
X137109786Y-94738649D01*
X137118324Y-94723054D01*
X137163478Y-94602606D01*
X137167105Y-94587351D01*
X137172631Y-94536486D01*
X137173000Y-94529672D01*
X137173000Y-93907115D01*
X137168525Y-93891876D01*
X137167135Y-93890671D01*
X137159452Y-93889000D01*
X136087115Y-93889000D01*
X136071876Y-93893475D01*
X136070671Y-93894865D01*
X136069000Y-93902548D01*
X136069000Y-94974884D01*
X135561000Y-94974884D01*
X135561000Y-93606863D01*
X140953050Y-93606863D01*
X140965309Y-93819477D01*
X140966745Y-93829697D01*
X141013565Y-94037446D01*
X141016645Y-94047275D01*
X141096770Y-94244603D01*
X141101413Y-94253794D01*
X141181460Y-94384420D01*
X141191916Y-94393880D01*
X141200694Y-94390096D01*
X141942978Y-93647812D01*
X141949356Y-93636132D01*
X142679408Y-93636132D01*
X142679539Y-93637965D01*
X142683790Y-93644580D01*
X143425474Y-94386264D01*
X143437484Y-94392823D01*
X143449223Y-94383855D01*
X143480004Y-94341019D01*
X143485315Y-94332180D01*
X143579670Y-94141267D01*
X143583469Y-94131672D01*
X143645376Y-93927915D01*
X143647555Y-93917834D01*
X143675590Y-93704887D01*
X143676109Y-93698212D01*
X143677572Y-93638364D01*
X143677378Y-93631646D01*
X143659781Y-93417604D01*
X143658096Y-93407424D01*
X143606214Y-93200875D01*
X143602894Y-93191124D01*
X143517972Y-92995814D01*
X143513105Y-92986739D01*
X143448063Y-92886197D01*
X143437377Y-92876995D01*
X143427812Y-92881398D01*
X142687022Y-93622188D01*
X142679408Y-93636132D01*
X141949356Y-93636132D01*
X141950592Y-93633868D01*
X141950461Y-93632035D01*
X141946210Y-93625420D01*
X141204849Y-92884059D01*
X141193313Y-92877759D01*
X141181031Y-92887382D01*
X141133089Y-92957662D01*
X141128004Y-92966613D01*
X141038338Y-93159783D01*
X141034775Y-93169470D01*
X140977864Y-93374681D01*
X140975933Y-93384800D01*
X140953302Y-93596574D01*
X140953050Y-93606863D01*
X135561000Y-93606863D01*
X135561000Y-93362885D01*
X136069000Y-93362885D01*
X136073475Y-93378124D01*
X136074865Y-93379329D01*
X136082548Y-93381000D01*
X137154884Y-93381000D01*
X137170123Y-93376525D01*
X137171328Y-93375135D01*
X137172999Y-93367452D01*
X137172999Y-92740331D01*
X137172629Y-92733510D01*
X137167105Y-92682648D01*
X137163479Y-92667396D01*
X137118324Y-92546946D01*
X137109786Y-92531351D01*
X137094854Y-92511427D01*
X141556223Y-92511427D01*
X141562968Y-92523758D01*
X142302188Y-93262978D01*
X142316132Y-93270592D01*
X142317965Y-93270461D01*
X142324580Y-93266210D01*
X143068389Y-92522401D01*
X143075410Y-92509544D01*
X143068611Y-92500213D01*
X143064554Y-92497518D01*
X142878117Y-92394599D01*
X142868705Y-92390369D01*
X142667959Y-92319280D01*
X142657989Y-92316646D01*
X142448327Y-92279301D01*
X142438073Y-92278331D01*
X142225116Y-92275728D01*
X142214832Y-92276448D01*
X142004321Y-92308661D01*
X141994293Y-92311050D01*
X141791868Y-92377212D01*
X141782359Y-92381209D01*
X141593466Y-92479540D01*
X141584734Y-92485039D01*
X141564677Y-92500099D01*
X141556223Y-92511427D01*
X137094854Y-92511427D01*
X137033285Y-92429276D01*
X137020724Y-92416715D01*
X136918649Y-92340214D01*
X136903054Y-92331676D01*
X136782606Y-92286522D01*
X136767351Y-92282895D01*
X136716486Y-92277369D01*
X136709672Y-92277000D01*
X136087115Y-92277000D01*
X136071876Y-92281475D01*
X136070671Y-92282865D01*
X136069000Y-92290548D01*
X136069000Y-93362885D01*
X135561000Y-93362885D01*
X135561000Y-92295116D01*
X135556525Y-92279877D01*
X135555135Y-92278672D01*
X135547452Y-92277001D01*
X134920331Y-92277001D01*
X134913510Y-92277371D01*
X134862648Y-92282895D01*
X134847396Y-92286521D01*
X134726946Y-92331676D01*
X134711351Y-92340214D01*
X134609276Y-92416715D01*
X134596715Y-92429276D01*
X134520214Y-92531351D01*
X134511676Y-92546946D01*
X134479482Y-92632823D01*
X134436840Y-92689587D01*
X134370279Y-92714287D01*
X134300930Y-92699080D01*
X134250812Y-92648794D01*
X134235500Y-92588593D01*
X134235500Y-87531966D01*
X136082257Y-87531966D01*
X136112565Y-87666446D01*
X136115645Y-87676275D01*
X136195770Y-87873603D01*
X136200413Y-87882794D01*
X136311694Y-88064388D01*
X136317777Y-88072699D01*
X136457213Y-88233667D01*
X136464580Y-88240883D01*
X136628434Y-88376916D01*
X136636881Y-88382831D01*
X136820756Y-88490279D01*
X136830042Y-88494729D01*
X137029001Y-88570703D01*
X137038899Y-88573579D01*
X137142250Y-88594606D01*
X137156299Y-88593410D01*
X137160000Y-88583065D01*
X137160000Y-88582517D01*
X137668000Y-88582517D01*
X137672064Y-88596359D01*
X137685478Y-88598393D01*
X137692184Y-88597534D01*
X137702262Y-88595392D01*
X137906255Y-88534191D01*
X137915842Y-88530433D01*
X138107095Y-88436739D01*
X138115945Y-88431464D01*
X138289328Y-88307792D01*
X138297200Y-88301139D01*
X138448052Y-88150812D01*
X138454730Y-88142965D01*
X138579003Y-87970020D01*
X138584313Y-87961183D01*
X138678670Y-87770267D01*
X138682469Y-87760672D01*
X138744377Y-87556910D01*
X138746555Y-87546837D01*
X138747986Y-87535962D01*
X138745775Y-87521778D01*
X138732617Y-87518000D01*
X137686115Y-87518000D01*
X137670876Y-87522475D01*
X137669671Y-87523865D01*
X137668000Y-87531548D01*
X137668000Y-88582517D01*
X137160000Y-88582517D01*
X137160000Y-87536115D01*
X137155525Y-87520876D01*
X137154135Y-87519671D01*
X137146452Y-87518000D01*
X136097225Y-87518000D01*
X136083694Y-87521973D01*
X136082257Y-87531966D01*
X134235500Y-87531966D01*
X134235500Y-85499999D01*
X134252381Y-85436999D01*
X134308223Y-85340279D01*
X134308224Y-85340278D01*
X134311527Y-85334556D01*
X134370542Y-85152928D01*
X134379809Y-85064763D01*
X134389814Y-84969565D01*
X134390504Y-84963000D01*
X134388599Y-84944872D01*
X134371232Y-84779635D01*
X134371232Y-84779633D01*
X134370542Y-84773072D01*
X134311527Y-84591444D01*
X134216040Y-84426056D01*
X134088253Y-84284134D01*
X133933752Y-84171882D01*
X133927724Y-84169198D01*
X133927722Y-84169197D01*
X133765319Y-84096891D01*
X133765318Y-84096891D01*
X133759288Y-84094206D01*
X133665888Y-84074353D01*
X133578944Y-84055872D01*
X133578939Y-84055872D01*
X133572487Y-84054500D01*
X133381513Y-84054500D01*
X133375061Y-84055872D01*
X133375056Y-84055872D01*
X133288112Y-84074353D01*
X133194712Y-84094206D01*
X133188682Y-84096891D01*
X133188681Y-84096891D01*
X133026278Y-84169197D01*
X133026276Y-84169198D01*
X133020248Y-84171882D01*
X132865747Y-84284134D01*
X132737960Y-84426056D01*
X132642473Y-84591444D01*
X132583458Y-84773072D01*
X132582768Y-84779633D01*
X132582768Y-84779635D01*
X132565401Y-84944872D01*
X132563496Y-84963000D01*
X132564186Y-84969565D01*
X132574192Y-85064763D01*
X132583458Y-85152928D01*
X132642473Y-85334556D01*
X132645776Y-85340278D01*
X132645777Y-85340279D01*
X132701619Y-85436999D01*
X132718500Y-85499999D01*
X132718500Y-94293930D01*
X132717067Y-94312880D01*
X132713801Y-94334349D01*
X132714394Y-94341641D01*
X132714394Y-94341644D01*
X132718085Y-94387018D01*
X132718500Y-94397233D01*
X132718500Y-94405293D01*
X132718925Y-94408937D01*
X132721789Y-94433507D01*
X132722222Y-94437882D01*
X132725946Y-94483658D01*
X132728140Y-94510637D01*
X132730396Y-94517601D01*
X132731587Y-94523560D01*
X132732971Y-94529415D01*
X132733818Y-94536681D01*
X132758735Y-94605327D01*
X132760152Y-94609455D01*
X132782649Y-94678899D01*
X132786445Y-94685154D01*
X132788951Y-94690628D01*
X132791670Y-94696058D01*
X132794167Y-94702937D01*
X132798180Y-94709057D01*
X132798180Y-94709058D01*
X132834186Y-94763976D01*
X132836523Y-94767680D01*
X132874405Y-94830107D01*
X132878121Y-94834315D01*
X132878122Y-94834316D01*
X132881803Y-94838484D01*
X132881776Y-94838508D01*
X132884429Y-94841500D01*
X132887132Y-94844733D01*
X132891144Y-94850852D01*
X132919608Y-94877816D01*
X132947383Y-94904128D01*
X132949825Y-94906506D01*
X134671230Y-96627911D01*
X134683616Y-96642323D01*
X134692149Y-96653918D01*
X134692154Y-96653923D01*
X134696492Y-96659818D01*
X134702070Y-96664557D01*
X134702073Y-96664560D01*
X134736768Y-96694035D01*
X134744284Y-96700965D01*
X134749980Y-96706661D01*
X134752841Y-96708924D01*
X134752846Y-96708929D01*
X134772266Y-96724293D01*
X134775667Y-96727082D01*
X134831285Y-96774333D01*
X134837798Y-96777659D01*
X134842837Y-96781020D01*
X134847979Y-96784196D01*
X134853716Y-96788734D01*
X134919875Y-96819655D01*
X134923769Y-96821558D01*
X134933253Y-96826401D01*
X134968921Y-96844614D01*
X135020494Y-96893408D01*
X135037500Y-96962338D01*
X135014540Y-97029519D01*
X134987278Y-97057587D01*
X134909965Y-97115635D01*
X134906393Y-97119373D01*
X134762809Y-97269625D01*
X134755629Y-97277138D01*
X134629743Y-97461680D01*
X134614003Y-97495590D01*
X134552147Y-97628848D01*
X134535688Y-97664305D01*
X134475989Y-97879570D01*
X134452251Y-98101695D01*
X134452548Y-98106848D01*
X134452548Y-98106851D01*
X134458011Y-98201590D01*
X134465110Y-98324715D01*
X134466247Y-98329761D01*
X134466248Y-98329767D01*
X134469700Y-98345083D01*
X134514222Y-98542639D01*
X134552461Y-98636811D01*
X134586477Y-98720582D01*
X134598266Y-98749616D01*
X134714987Y-98940088D01*
X134861250Y-99108938D01*
X135033126Y-99251632D01*
X135041823Y-99256714D01*
X135090544Y-99308353D01*
X135103614Y-99378136D01*
X135076881Y-99443907D01*
X135018833Y-99484785D01*
X134978249Y-99491500D01*
X104165734Y-99491500D01*
X104097613Y-99471498D01*
X104051120Y-99417842D01*
X104041016Y-99347568D01*
X104070510Y-99282988D01*
X104105033Y-99255086D01*
X104343307Y-99124093D01*
X104343310Y-99124091D01*
X104346779Y-99122184D01*
X104592043Y-98943990D01*
X104598936Y-98938982D01*
X104598938Y-98938981D01*
X104602140Y-98936654D01*
X104832233Y-98720582D01*
X105033432Y-98477375D01*
X105202562Y-98210869D01*
X105204246Y-98207290D01*
X105204250Y-98207283D01*
X105335267Y-97928856D01*
X105335269Y-97928852D01*
X105336956Y-97925266D01*
X105434495Y-97625072D01*
X105455174Y-97516669D01*
X113465001Y-97516669D01*
X113465371Y-97523490D01*
X113470895Y-97574352D01*
X113474521Y-97589604D01*
X113519676Y-97710054D01*
X113528214Y-97725649D01*
X113604715Y-97827724D01*
X113617276Y-97840285D01*
X113719351Y-97916786D01*
X113734946Y-97925324D01*
X113855394Y-97970478D01*
X113870649Y-97974105D01*
X113921514Y-97979631D01*
X113928328Y-97980000D01*
X114550885Y-97980000D01*
X114566124Y-97975525D01*
X114567329Y-97974135D01*
X114569000Y-97966452D01*
X114569000Y-97961884D01*
X115077000Y-97961884D01*
X115081475Y-97977123D01*
X115082865Y-97978328D01*
X115090548Y-97979999D01*
X115717669Y-97979999D01*
X115724490Y-97979629D01*
X115775352Y-97974105D01*
X115790604Y-97970479D01*
X115911054Y-97925324D01*
X115926649Y-97916786D01*
X116028724Y-97840285D01*
X116041285Y-97827724D01*
X116117786Y-97725649D01*
X116126324Y-97710054D01*
X116167225Y-97600952D01*
X116209867Y-97544188D01*
X116276428Y-97519488D01*
X116345777Y-97534696D01*
X116380444Y-97562684D01*
X116405865Y-97592031D01*
X116405869Y-97592035D01*
X116409250Y-97595938D01*
X116581126Y-97738632D01*
X116774000Y-97851338D01*
X116778825Y-97853180D01*
X116778826Y-97853181D01*
X116847932Y-97879570D01*
X116982692Y-97931030D01*
X116987760Y-97932061D01*
X116987763Y-97932062D01*
X117095017Y-97953883D01*
X117201597Y-97975567D01*
X117206772Y-97975757D01*
X117206774Y-97975757D01*
X117419673Y-97983564D01*
X117419677Y-97983564D01*
X117424837Y-97983753D01*
X117429957Y-97983097D01*
X117429959Y-97983097D01*
X117641288Y-97956025D01*
X117641289Y-97956025D01*
X117646416Y-97955368D01*
X117690184Y-97942237D01*
X117855429Y-97892661D01*
X117855434Y-97892659D01*
X117860384Y-97891174D01*
X118060994Y-97792896D01*
X118242860Y-97663173D01*
X118281095Y-97625072D01*
X118357374Y-97549058D01*
X118401096Y-97505489D01*
X118531453Y-97324077D01*
X118532776Y-97325028D01*
X118579645Y-97281857D01*
X118649580Y-97269625D01*
X118715026Y-97297144D01*
X118742875Y-97328994D01*
X118802987Y-97427088D01*
X118949250Y-97595938D01*
X119121126Y-97738632D01*
X119314000Y-97851338D01*
X119318825Y-97853180D01*
X119318826Y-97853181D01*
X119387932Y-97879570D01*
X119522692Y-97931030D01*
X119527760Y-97932061D01*
X119527763Y-97932062D01*
X119635017Y-97953883D01*
X119741597Y-97975567D01*
X119746772Y-97975757D01*
X119746774Y-97975757D01*
X119959673Y-97983564D01*
X119959677Y-97983564D01*
X119964837Y-97983753D01*
X119969957Y-97983097D01*
X119969959Y-97983097D01*
X120181288Y-97956025D01*
X120181289Y-97956025D01*
X120186416Y-97955368D01*
X120230184Y-97942237D01*
X120395429Y-97892661D01*
X120395434Y-97892659D01*
X120400384Y-97891174D01*
X120600994Y-97792896D01*
X120782860Y-97663173D01*
X120821095Y-97625072D01*
X120897374Y-97549058D01*
X120941096Y-97505489D01*
X121071453Y-97324077D01*
X121092320Y-97281857D01*
X121168136Y-97128453D01*
X121168137Y-97128451D01*
X121170430Y-97123811D01*
X121218659Y-96965072D01*
X121233865Y-96915023D01*
X121233865Y-96915021D01*
X121235370Y-96910069D01*
X121264529Y-96688590D01*
X121264617Y-96684980D01*
X121266074Y-96625365D01*
X121266074Y-96625361D01*
X121266156Y-96622000D01*
X121247852Y-96399361D01*
X121193431Y-96182702D01*
X121104354Y-95977840D01*
X121047848Y-95890495D01*
X120985822Y-95794617D01*
X120985820Y-95794614D01*
X120983014Y-95790277D01*
X120832670Y-95625051D01*
X120736507Y-95549105D01*
X120709407Y-95527703D01*
X120668345Y-95469785D01*
X120661500Y-95428821D01*
X120661500Y-93554070D01*
X120662933Y-93535120D01*
X120665099Y-93520885D01*
X120665099Y-93520881D01*
X120666199Y-93513651D01*
X120661915Y-93460982D01*
X120661500Y-93450767D01*
X120661500Y-93442707D01*
X120659951Y-93429417D01*
X120658211Y-93414493D01*
X120657778Y-93410118D01*
X120652454Y-93344661D01*
X120652453Y-93344658D01*
X120651860Y-93337363D01*
X120649604Y-93330399D01*
X120648413Y-93324440D01*
X120647029Y-93318585D01*
X120646182Y-93311319D01*
X120621265Y-93242673D01*
X120619848Y-93238545D01*
X120599607Y-93176064D01*
X120599606Y-93176062D01*
X120597351Y-93169101D01*
X120593555Y-93162846D01*
X120591049Y-93157372D01*
X120588330Y-93151942D01*
X120585833Y-93145063D01*
X120545814Y-93084024D01*
X120543467Y-93080305D01*
X120529519Y-93057319D01*
X120505595Y-93017893D01*
X120498197Y-93009516D01*
X120498224Y-93009492D01*
X120495571Y-93006500D01*
X120492868Y-93003267D01*
X120488856Y-92997148D01*
X120432617Y-92943872D01*
X120430175Y-92941494D01*
X118605405Y-91116724D01*
X118571379Y-91054412D01*
X118568500Y-91027629D01*
X118568500Y-76944999D01*
X118585381Y-76881999D01*
X118641223Y-76785279D01*
X118641224Y-76785278D01*
X118644527Y-76779556D01*
X118703542Y-76597928D01*
X118723504Y-76408000D01*
X118703542Y-76218072D01*
X118644527Y-76036444D01*
X118549040Y-75871056D01*
X118528280Y-75847999D01*
X118425675Y-75734045D01*
X118425674Y-75734044D01*
X118421253Y-75729134D01*
X118307167Y-75646245D01*
X118272094Y-75620763D01*
X118272093Y-75620762D01*
X118266752Y-75616882D01*
X118260724Y-75614198D01*
X118260722Y-75614197D01*
X118098319Y-75541891D01*
X118098318Y-75541891D01*
X118092288Y-75539206D01*
X117998888Y-75519353D01*
X117911944Y-75500872D01*
X117911939Y-75500872D01*
X117905487Y-75499500D01*
X117714513Y-75499500D01*
X117708053Y-75500873D01*
X117708054Y-75500873D01*
X117643960Y-75514496D01*
X117573170Y-75509094D01*
X117516537Y-75466277D01*
X117492044Y-75399639D01*
X117492454Y-75378079D01*
X117498814Y-75317565D01*
X117499504Y-75311000D01*
X117479542Y-75121072D01*
X117420527Y-74939444D01*
X117325040Y-74774056D01*
X117197253Y-74632134D01*
X117042752Y-74519882D01*
X117036724Y-74517198D01*
X117036722Y-74517197D01*
X116874319Y-74444891D01*
X116874318Y-74444891D01*
X116868288Y-74442206D01*
X116774888Y-74422353D01*
X116687944Y-74403872D01*
X116687939Y-74403872D01*
X116681487Y-74402500D01*
X116490513Y-74402500D01*
X116484061Y-74403872D01*
X116484056Y-74403872D01*
X116397112Y-74422353D01*
X116303712Y-74442206D01*
X116297682Y-74444891D01*
X116297681Y-74444891D01*
X116135278Y-74517197D01*
X116135276Y-74517198D01*
X116129248Y-74519882D01*
X115974747Y-74632134D01*
X115846960Y-74774056D01*
X115751473Y-74939444D01*
X115692458Y-75121072D01*
X115672496Y-75311000D01*
X115692458Y-75500928D01*
X115751473Y-75682556D01*
X115754776Y-75688278D01*
X115754777Y-75688279D01*
X115810619Y-75784999D01*
X115827500Y-75847999D01*
X115827500Y-92388930D01*
X115826067Y-92407880D01*
X115822801Y-92429349D01*
X115823394Y-92436641D01*
X115823394Y-92436644D01*
X115827085Y-92482018D01*
X115827500Y-92492233D01*
X115827500Y-92500293D01*
X115827925Y-92503937D01*
X115830789Y-92528507D01*
X115831222Y-92532882D01*
X115835754Y-92588593D01*
X115837140Y-92605637D01*
X115839396Y-92612601D01*
X115840587Y-92618560D01*
X115841971Y-92624415D01*
X115842818Y-92631681D01*
X115867735Y-92700327D01*
X115869152Y-92704455D01*
X115885694Y-92755516D01*
X115891649Y-92773899D01*
X115895445Y-92780154D01*
X115897951Y-92785628D01*
X115900670Y-92791058D01*
X115903167Y-92797937D01*
X115907180Y-92804057D01*
X115907180Y-92804058D01*
X115943186Y-92858976D01*
X115945523Y-92862680D01*
X115983405Y-92925107D01*
X115987121Y-92929315D01*
X115987122Y-92929316D01*
X115990803Y-92933484D01*
X115990776Y-92933508D01*
X115993429Y-92936500D01*
X115996132Y-92939733D01*
X116000144Y-92945852D01*
X116039372Y-92983013D01*
X116056383Y-92999128D01*
X116058825Y-93001506D01*
X116567595Y-93510276D01*
X116601621Y-93572588D01*
X116604500Y-93599371D01*
X116604500Y-95429655D01*
X116584498Y-95497776D01*
X116554153Y-95530415D01*
X116517436Y-95557983D01*
X116457965Y-95602635D01*
X116454393Y-95606373D01*
X116376898Y-95687466D01*
X116315374Y-95722895D01*
X116244462Y-95719438D01*
X116186676Y-95678192D01*
X116167823Y-95644644D01*
X116126324Y-95533946D01*
X116117786Y-95518351D01*
X116041285Y-95416276D01*
X116028724Y-95403715D01*
X115926649Y-95327214D01*
X115911054Y-95318676D01*
X115790606Y-95273522D01*
X115775351Y-95269895D01*
X115724486Y-95264369D01*
X115717672Y-95264000D01*
X115095115Y-95264000D01*
X115079876Y-95268475D01*
X115078671Y-95269865D01*
X115077000Y-95277548D01*
X115077000Y-97961884D01*
X114569000Y-97961884D01*
X114569000Y-96894115D01*
X114564525Y-96878876D01*
X114563135Y-96877671D01*
X114555452Y-96876000D01*
X113483116Y-96876000D01*
X113467877Y-96880475D01*
X113466672Y-96881865D01*
X113465001Y-96889548D01*
X113465001Y-97516669D01*
X105455174Y-97516669D01*
X105493641Y-97315020D01*
X105513460Y-97000000D01*
X105493641Y-96684980D01*
X105434495Y-96374928D01*
X105426358Y-96349885D01*
X113465000Y-96349885D01*
X113469475Y-96365124D01*
X113470865Y-96366329D01*
X113478548Y-96368000D01*
X114550885Y-96368000D01*
X114566124Y-96363525D01*
X114567329Y-96362135D01*
X114569000Y-96354452D01*
X114569000Y-95282116D01*
X114564525Y-95266877D01*
X114563135Y-95265672D01*
X114555452Y-95264001D01*
X113928331Y-95264001D01*
X113921510Y-95264371D01*
X113870648Y-95269895D01*
X113855396Y-95273521D01*
X113734946Y-95318676D01*
X113719351Y-95327214D01*
X113617276Y-95403715D01*
X113604715Y-95416276D01*
X113528214Y-95518351D01*
X113519676Y-95533946D01*
X113474522Y-95654394D01*
X113470895Y-95669649D01*
X113465369Y-95720514D01*
X113465000Y-95727328D01*
X113465000Y-96349885D01*
X105426358Y-96349885D01*
X105336956Y-96074734D01*
X105293597Y-95982590D01*
X105204250Y-95792717D01*
X105204246Y-95792710D01*
X105202562Y-95789131D01*
X105033432Y-95522625D01*
X104885325Y-95343595D01*
X104834758Y-95282470D01*
X104834757Y-95282469D01*
X104832233Y-95279418D01*
X104825955Y-95273522D01*
X104689926Y-95145783D01*
X104602140Y-95063346D01*
X104346779Y-94877816D01*
X104316699Y-94861279D01*
X104073648Y-94727660D01*
X104073647Y-94727659D01*
X104070179Y-94725753D01*
X104066510Y-94724300D01*
X104066505Y-94724298D01*
X103886810Y-94653152D01*
X103830836Y-94609477D01*
X103807360Y-94542474D01*
X103823836Y-94473416D01*
X103875031Y-94424227D01*
X103933194Y-94410000D01*
X111015000Y-94410000D01*
X111015000Y-66410000D01*
X100634500Y-66410000D01*
X100566379Y-66389998D01*
X100519886Y-66336342D01*
X100508500Y-66284000D01*
X100508500Y-64269183D01*
X114780389Y-64269183D01*
X114781912Y-64277607D01*
X114794292Y-64281000D01*
X115843885Y-64281000D01*
X115859124Y-64276525D01*
X115860329Y-64275135D01*
X115862000Y-64267452D01*
X115862000Y-63218102D01*
X115858082Y-63204758D01*
X115843806Y-63202771D01*
X115805324Y-63208660D01*
X115795288Y-63211051D01*
X115592868Y-63277212D01*
X115583359Y-63281209D01*
X115394463Y-63379542D01*
X115385738Y-63385036D01*
X115215433Y-63512905D01*
X115207726Y-63519748D01*
X115060590Y-63673717D01*
X115054104Y-63681727D01*
X114934098Y-63857649D01*
X114929000Y-63866623D01*
X114839338Y-64059783D01*
X114835775Y-64069470D01*
X114780389Y-64269183D01*
X100508500Y-64269183D01*
X100508500Y-44160535D01*
X100528502Y-44092414D01*
X100582158Y-44045921D01*
X100652432Y-44035817D01*
X100717012Y-44065311D01*
X100748508Y-44106887D01*
X100797438Y-44210869D01*
X100966568Y-44477375D01*
X101039308Y-44565302D01*
X101155173Y-44705358D01*
X101167767Y-44720582D01*
X101397860Y-44936654D01*
X101653221Y-45122184D01*
X101656690Y-45124091D01*
X101656693Y-45124093D01*
X101924124Y-45271115D01*
X101929821Y-45274247D01*
X101933490Y-45275700D01*
X101933495Y-45275702D01*
X102219386Y-45388894D01*
X102223298Y-45390443D01*
X102529025Y-45468940D01*
X102842179Y-45508500D01*
X103157821Y-45508500D01*
X103470975Y-45468940D01*
X103776702Y-45390443D01*
X103780614Y-45388894D01*
X104066505Y-45275702D01*
X104066510Y-45275700D01*
X104070179Y-45274247D01*
X104075876Y-45271115D01*
X104343307Y-45124093D01*
X104343310Y-45124091D01*
X104346779Y-45122184D01*
X104602140Y-44936654D01*
X104832233Y-44720582D01*
X104844828Y-44705358D01*
X104960692Y-44565302D01*
X105033432Y-44477375D01*
X105202562Y-44210869D01*
X105204246Y-44207290D01*
X105204250Y-44207283D01*
X105335267Y-43928856D01*
X105335269Y-43928852D01*
X105336956Y-43925266D01*
X105434495Y-43625072D01*
X105493641Y-43315020D01*
X105513460Y-43000000D01*
X105493641Y-42684980D01*
X105434495Y-42374928D01*
X105336956Y-42074734D01*
X105314756Y-42027556D01*
X105204250Y-41792717D01*
X105204246Y-41792710D01*
X105202562Y-41789131D01*
X105033432Y-41522625D01*
X104832233Y-41279418D01*
X104602140Y-41063346D01*
X104346779Y-40877816D01*
X104330312Y-40868763D01*
X104105033Y-40744914D01*
X104054974Y-40694569D01*
X104040081Y-40625152D01*
X104065082Y-40558703D01*
X104122039Y-40516319D01*
X104165734Y-40508500D01*
X178011108Y-40508500D01*
X178079229Y-40528502D01*
G37*
%TD.AperFunction*%
%TA.AperFunction,Conductor*%
G36*
X173902472Y-42946563D02*
G01*
X173908902Y-42951235D01*
X173908909Y-42951239D01*
X173914248Y-42955118D01*
X173920276Y-42957802D01*
X173920278Y-42957803D01*
X174015055Y-43000000D01*
X174088712Y-43032794D01*
X174206910Y-43057918D01*
X174222600Y-43061253D01*
X174285073Y-43094982D01*
X174319395Y-43157131D01*
X174314667Y-43227970D01*
X174272391Y-43285008D01*
X174205990Y-43310135D01*
X174196403Y-43310500D01*
X158309069Y-43310500D01*
X158290121Y-43309067D01*
X158282780Y-43307950D01*
X158275883Y-43306901D01*
X158275881Y-43306901D01*
X158268651Y-43305801D01*
X158261359Y-43306394D01*
X158261356Y-43306394D01*
X158215982Y-43310085D01*
X158205767Y-43310500D01*
X158197707Y-43310500D01*
X158184417Y-43312049D01*
X158169493Y-43313789D01*
X158165118Y-43314222D01*
X158099661Y-43319546D01*
X158099658Y-43319547D01*
X158092363Y-43320140D01*
X158085399Y-43322396D01*
X158079440Y-43323587D01*
X158073585Y-43324971D01*
X158066319Y-43325818D01*
X157997673Y-43350735D01*
X157993545Y-43352152D01*
X157931064Y-43372393D01*
X157931062Y-43372394D01*
X157924101Y-43374649D01*
X157917846Y-43378445D01*
X157912372Y-43380951D01*
X157906942Y-43383670D01*
X157900063Y-43386167D01*
X157839016Y-43426191D01*
X157835327Y-43428518D01*
X157815135Y-43440771D01*
X157777693Y-43463491D01*
X157777688Y-43463495D01*
X157772892Y-43466405D01*
X157764516Y-43473803D01*
X157764493Y-43473777D01*
X157761503Y-43476426D01*
X157758264Y-43479134D01*
X157752148Y-43483144D01*
X157747121Y-43488451D01*
X157747117Y-43488454D01*
X157698872Y-43539383D01*
X157696494Y-43541825D01*
X156483089Y-44755230D01*
X156468677Y-44767616D01*
X156457082Y-44776149D01*
X156457077Y-44776154D01*
X156451182Y-44780492D01*
X156446443Y-44786070D01*
X156446440Y-44786073D01*
X156416965Y-44820768D01*
X156410035Y-44828284D01*
X156404340Y-44833979D01*
X156402060Y-44836861D01*
X156386719Y-44856251D01*
X156383928Y-44859655D01*
X156379893Y-44864405D01*
X156336667Y-44915285D01*
X156333339Y-44921801D01*
X156329972Y-44926850D01*
X156326805Y-44931979D01*
X156322266Y-44937716D01*
X156291345Y-45003875D01*
X156289442Y-45007769D01*
X156256231Y-45072808D01*
X156254492Y-45079916D01*
X156252393Y-45085559D01*
X156250476Y-45091322D01*
X156247378Y-45097950D01*
X156245888Y-45105112D01*
X156245888Y-45105113D01*
X156232514Y-45169412D01*
X156231544Y-45173696D01*
X156214192Y-45244610D01*
X156213500Y-45255764D01*
X156213464Y-45255762D01*
X156213225Y-45259755D01*
X156212851Y-45263947D01*
X156211360Y-45271115D01*
X156211558Y-45278432D01*
X156213454Y-45348521D01*
X156213500Y-45351928D01*
X156213500Y-52719629D01*
X156193498Y-52787750D01*
X156176595Y-52808724D01*
X140819724Y-68165595D01*
X140757412Y-68199621D01*
X140730629Y-68202500D01*
X127923587Y-68202500D01*
X127849528Y-68178437D01*
X127843098Y-68173765D01*
X127843091Y-68173761D01*
X127837752Y-68169882D01*
X127831724Y-68167198D01*
X127831722Y-68167197D01*
X127669319Y-68094891D01*
X127669318Y-68094891D01*
X127663288Y-68092206D01*
X127569887Y-68072353D01*
X127482944Y-68053872D01*
X127482939Y-68053872D01*
X127476487Y-68052500D01*
X127285513Y-68052500D01*
X127279061Y-68053872D01*
X127279056Y-68053872D01*
X127192113Y-68072353D01*
X127098712Y-68092206D01*
X127092682Y-68094891D01*
X127092681Y-68094891D01*
X126930278Y-68167197D01*
X126930276Y-68167198D01*
X126924248Y-68169882D01*
X126918907Y-68173762D01*
X126918906Y-68173763D01*
X126912473Y-68178437D01*
X126769747Y-68282134D01*
X126641960Y-68424056D01*
X126638659Y-68429774D01*
X126596619Y-68502589D01*
X126545237Y-68551582D01*
X126475523Y-68565018D01*
X126409612Y-68538632D01*
X126368430Y-68480800D01*
X126361500Y-68439589D01*
X126361500Y-60330134D01*
X133265500Y-60330134D01*
X133272255Y-60392316D01*
X133323385Y-60528705D01*
X133410739Y-60645261D01*
X133527295Y-60732615D01*
X133663684Y-60783745D01*
X133725866Y-60790500D01*
X136022134Y-60790500D01*
X136084316Y-60783745D01*
X136220705Y-60732615D01*
X136337261Y-60645261D01*
X136424615Y-60528705D01*
X136475745Y-60392316D01*
X136482500Y-60330134D01*
X136482500Y-58033866D01*
X136475745Y-57971684D01*
X136424615Y-57835295D01*
X136337261Y-57718739D01*
X136220705Y-57631385D01*
X136084316Y-57580255D01*
X136022134Y-57573500D01*
X133725866Y-57573500D01*
X133663684Y-57580255D01*
X133527295Y-57631385D01*
X133410739Y-57718739D01*
X133323385Y-57835295D01*
X133272255Y-57971684D01*
X133265500Y-58033866D01*
X133265500Y-60330134D01*
X126361500Y-60330134D01*
X126361500Y-52959000D01*
X141834496Y-52959000D01*
X141835186Y-52965565D01*
X141848288Y-53090220D01*
X141854458Y-53148928D01*
X141913473Y-53330556D01*
X141916776Y-53336278D01*
X141916777Y-53336279D01*
X141929728Y-53358710D01*
X142008960Y-53495944D01*
X142013378Y-53500851D01*
X142013379Y-53500852D01*
X142116391Y-53615258D01*
X142136747Y-53637866D01*
X142195174Y-53680316D01*
X142285904Y-53746235D01*
X142291248Y-53750118D01*
X142297276Y-53752802D01*
X142297278Y-53752803D01*
X142459681Y-53825109D01*
X142465712Y-53827794D01*
X142559113Y-53847647D01*
X142646056Y-53866128D01*
X142646061Y-53866128D01*
X142652513Y-53867500D01*
X142843487Y-53867500D01*
X142849939Y-53866128D01*
X142849944Y-53866128D01*
X142936887Y-53847647D01*
X143030288Y-53827794D01*
X143036319Y-53825109D01*
X143198722Y-53752803D01*
X143198724Y-53752802D01*
X143204752Y-53750118D01*
X143210091Y-53746239D01*
X143210098Y-53746235D01*
X143216528Y-53741563D01*
X143290587Y-53717500D01*
X153127413Y-53717500D01*
X153201472Y-53741563D01*
X153207902Y-53746235D01*
X153207909Y-53746239D01*
X153213248Y-53750118D01*
X153219276Y-53752802D01*
X153219278Y-53752803D01*
X153381681Y-53825109D01*
X153387712Y-53827794D01*
X153481113Y-53847647D01*
X153568056Y-53866128D01*
X153568061Y-53866128D01*
X153574513Y-53867500D01*
X153765487Y-53867500D01*
X153771939Y-53866128D01*
X153771944Y-53866128D01*
X153858887Y-53847647D01*
X153952288Y-53827794D01*
X153958319Y-53825109D01*
X154120722Y-53752803D01*
X154120724Y-53752802D01*
X154126752Y-53750118D01*
X154132097Y-53746235D01*
X154222826Y-53680316D01*
X154281253Y-53637866D01*
X154301609Y-53615258D01*
X154404621Y-53500852D01*
X154404622Y-53500851D01*
X154409040Y-53495944D01*
X154488272Y-53358710D01*
X154501223Y-53336279D01*
X154501224Y-53336278D01*
X154504527Y-53330556D01*
X154563542Y-53148928D01*
X154569713Y-53090220D01*
X154582814Y-52965565D01*
X154583504Y-52959000D01*
X154563542Y-52769072D01*
X154504527Y-52587444D01*
X154409040Y-52422056D01*
X154281253Y-52280134D01*
X154138527Y-52176437D01*
X154132094Y-52171763D01*
X154132093Y-52171762D01*
X154126752Y-52167882D01*
X154120724Y-52165198D01*
X154120722Y-52165197D01*
X153958319Y-52092891D01*
X153958318Y-52092891D01*
X153952288Y-52090206D01*
X153858888Y-52070353D01*
X153771944Y-52051872D01*
X153771939Y-52051872D01*
X153765487Y-52050500D01*
X153574513Y-52050500D01*
X153568061Y-52051872D01*
X153568056Y-52051872D01*
X153481112Y-52070353D01*
X153387712Y-52090206D01*
X153381682Y-52092891D01*
X153381681Y-52092891D01*
X153219278Y-52165197D01*
X153219276Y-52165198D01*
X153213248Y-52167882D01*
X153207909Y-52171761D01*
X153207902Y-52171765D01*
X153201472Y-52176437D01*
X153127413Y-52200500D01*
X143290587Y-52200500D01*
X143216528Y-52176437D01*
X143210098Y-52171765D01*
X143210091Y-52171761D01*
X143204752Y-52167882D01*
X143198724Y-52165198D01*
X143198722Y-52165197D01*
X143036319Y-52092891D01*
X143036318Y-52092891D01*
X143030288Y-52090206D01*
X142936888Y-52070353D01*
X142849944Y-52051872D01*
X142849939Y-52051872D01*
X142843487Y-52050500D01*
X142652513Y-52050500D01*
X142646061Y-52051872D01*
X142646056Y-52051872D01*
X142559112Y-52070353D01*
X142465712Y-52090206D01*
X142459682Y-52092891D01*
X142459681Y-52092891D01*
X142297278Y-52165197D01*
X142297276Y-52165198D01*
X142291248Y-52167882D01*
X142285907Y-52171762D01*
X142285906Y-52171763D01*
X142279473Y-52176437D01*
X142136747Y-52280134D01*
X142008960Y-52422056D01*
X141913473Y-52587444D01*
X141854458Y-52769072D01*
X141834496Y-52959000D01*
X126361500Y-52959000D01*
X126361500Y-49022000D01*
X133260526Y-49022000D01*
X133280391Y-49274403D01*
X133281545Y-49279210D01*
X133281546Y-49279216D01*
X133313024Y-49410329D01*
X133339495Y-49520591D01*
X133341388Y-49525162D01*
X133341389Y-49525164D01*
X133426119Y-49729719D01*
X133436384Y-49754502D01*
X133568672Y-49970376D01*
X133733102Y-50162898D01*
X133925624Y-50327328D01*
X134141498Y-50459616D01*
X134146068Y-50461509D01*
X134146072Y-50461511D01*
X134370836Y-50554611D01*
X134375409Y-50556505D01*
X134460032Y-50576821D01*
X134616784Y-50614454D01*
X134616790Y-50614455D01*
X134621597Y-50615609D01*
X134874000Y-50635474D01*
X135126403Y-50615609D01*
X135131210Y-50614455D01*
X135131216Y-50614454D01*
X135287968Y-50576821D01*
X135372591Y-50556505D01*
X135377164Y-50554611D01*
X135601928Y-50461511D01*
X135601932Y-50461509D01*
X135606502Y-50459616D01*
X135822376Y-50327328D01*
X136014898Y-50162898D01*
X136179328Y-49970376D01*
X136259425Y-49839669D01*
X148066001Y-49839669D01*
X148066371Y-49846490D01*
X148071895Y-49897352D01*
X148075521Y-49912604D01*
X148120676Y-50033054D01*
X148129214Y-50048649D01*
X148205715Y-50150724D01*
X148218276Y-50163285D01*
X148320351Y-50239786D01*
X148335946Y-50248324D01*
X148456394Y-50293478D01*
X148471649Y-50297105D01*
X148522514Y-50302631D01*
X148529328Y-50303000D01*
X149201885Y-50303000D01*
X149217124Y-50298525D01*
X149218329Y-50297135D01*
X149220000Y-50289452D01*
X149220000Y-50284884D01*
X149728000Y-50284884D01*
X149732475Y-50300123D01*
X149733865Y-50301328D01*
X149741548Y-50302999D01*
X150418669Y-50302999D01*
X150425490Y-50302629D01*
X150476352Y-50297105D01*
X150491604Y-50293479D01*
X150612054Y-50248324D01*
X150627649Y-50239786D01*
X150729724Y-50163285D01*
X150742285Y-50150724D01*
X150818786Y-50048649D01*
X150827324Y-50033054D01*
X150848773Y-49975840D01*
X150891415Y-49919075D01*
X150957977Y-49894376D01*
X151027325Y-49909584D01*
X151047240Y-49923126D01*
X151203349Y-50052730D01*
X151403322Y-50169584D01*
X151619694Y-50252209D01*
X151624760Y-50253240D01*
X151624761Y-50253240D01*
X151677846Y-50264040D01*
X151846656Y-50298385D01*
X151977324Y-50303176D01*
X152072949Y-50306683D01*
X152072953Y-50306683D01*
X152078113Y-50306872D01*
X152083233Y-50306216D01*
X152083235Y-50306216D01*
X152182668Y-50293478D01*
X152307847Y-50277442D01*
X152312795Y-50275957D01*
X152312802Y-50275956D01*
X152524747Y-50212369D01*
X152529690Y-50210886D01*
X152610236Y-50171427D01*
X152733049Y-50111262D01*
X152733052Y-50111260D01*
X152737684Y-50108991D01*
X152926243Y-49974494D01*
X153090303Y-49811005D01*
X153225458Y-49622917D01*
X153273771Y-49525164D01*
X153325784Y-49419922D01*
X153325785Y-49419920D01*
X153328078Y-49415280D01*
X153395408Y-49193671D01*
X153425640Y-48964041D01*
X153427327Y-48895000D01*
X153416621Y-48764784D01*
X153408773Y-48669318D01*
X153408772Y-48669312D01*
X153408349Y-48664167D01*
X153371943Y-48519229D01*
X153353184Y-48444544D01*
X153353183Y-48444540D01*
X153351925Y-48439533D01*
X153349845Y-48434749D01*
X153261630Y-48231868D01*
X153261628Y-48231865D01*
X153259570Y-48227131D01*
X153133764Y-48032665D01*
X153115355Y-48012433D01*
X153045228Y-47935365D01*
X152977887Y-47861358D01*
X152973836Y-47858159D01*
X152973832Y-47858155D01*
X152800177Y-47721011D01*
X152800172Y-47721008D01*
X152796123Y-47717810D01*
X152791607Y-47715317D01*
X152791604Y-47715315D01*
X152597879Y-47608373D01*
X152597875Y-47608371D01*
X152593355Y-47605876D01*
X152588486Y-47604152D01*
X152588482Y-47604150D01*
X152379903Y-47530288D01*
X152379899Y-47530287D01*
X152375028Y-47528562D01*
X152369935Y-47527655D01*
X152369932Y-47527654D01*
X152152095Y-47488851D01*
X152152089Y-47488850D01*
X152147006Y-47487945D01*
X152069644Y-47487000D01*
X151920581Y-47485179D01*
X151920579Y-47485179D01*
X151915411Y-47485116D01*
X151686464Y-47520150D01*
X151466314Y-47592106D01*
X151461726Y-47594494D01*
X151461722Y-47594496D01*
X151337569Y-47659126D01*
X151260872Y-47699052D01*
X151256739Y-47702155D01*
X151256736Y-47702157D01*
X151079790Y-47835012D01*
X151075655Y-47838117D01*
X151072083Y-47841855D01*
X151057787Y-47856815D01*
X150996263Y-47892245D01*
X150925351Y-47888788D01*
X150867564Y-47847543D01*
X150848711Y-47813994D01*
X150827324Y-47756946D01*
X150818786Y-47741351D01*
X150742285Y-47639276D01*
X150729724Y-47626715D01*
X150627649Y-47550214D01*
X150612054Y-47541676D01*
X150491606Y-47496522D01*
X150476351Y-47492895D01*
X150425486Y-47487369D01*
X150418672Y-47487000D01*
X149746115Y-47487000D01*
X149730876Y-47491475D01*
X149729671Y-47492865D01*
X149728000Y-47500548D01*
X149728000Y-50284884D01*
X149220000Y-50284884D01*
X149220000Y-49167115D01*
X149215525Y-49151876D01*
X149214135Y-49150671D01*
X149206452Y-49149000D01*
X148084116Y-49149000D01*
X148068877Y-49153475D01*
X148067672Y-49154865D01*
X148066001Y-49162548D01*
X148066001Y-49839669D01*
X136259425Y-49839669D01*
X136311616Y-49754502D01*
X136321882Y-49729719D01*
X136406611Y-49525164D01*
X136406612Y-49525162D01*
X136408505Y-49520591D01*
X136434976Y-49410329D01*
X136466454Y-49279216D01*
X136466455Y-49279210D01*
X136467609Y-49274403D01*
X136487474Y-49022000D01*
X136467609Y-48769597D01*
X136443535Y-48669318D01*
X136432387Y-48622885D01*
X148066000Y-48622885D01*
X148070475Y-48638124D01*
X148071865Y-48639329D01*
X148079548Y-48641000D01*
X149201885Y-48641000D01*
X149217124Y-48636525D01*
X149218329Y-48635135D01*
X149220000Y-48627452D01*
X149220000Y-47505116D01*
X149215525Y-47489877D01*
X149214135Y-47488672D01*
X149206452Y-47487001D01*
X148529331Y-47487001D01*
X148522510Y-47487371D01*
X148471648Y-47492895D01*
X148456396Y-47496521D01*
X148335946Y-47541676D01*
X148320351Y-47550214D01*
X148218276Y-47626715D01*
X148205715Y-47639276D01*
X148129214Y-47741351D01*
X148120676Y-47756946D01*
X148075522Y-47877394D01*
X148071895Y-47892649D01*
X148066369Y-47943514D01*
X148066000Y-47950328D01*
X148066000Y-48622885D01*
X136432387Y-48622885D01*
X136428821Y-48608032D01*
X136408505Y-48523409D01*
X136406611Y-48518836D01*
X136313511Y-48294072D01*
X136313509Y-48294068D01*
X136311616Y-48289498D01*
X136209055Y-48122134D01*
X137729500Y-48122134D01*
X137736255Y-48184316D01*
X137787385Y-48320705D01*
X137874739Y-48437261D01*
X137991295Y-48524615D01*
X138127684Y-48575745D01*
X138189866Y-48582500D01*
X141286134Y-48582500D01*
X141348316Y-48575745D01*
X141484705Y-48524615D01*
X141601261Y-48437261D01*
X141688615Y-48320705D01*
X141739745Y-48184316D01*
X141741990Y-48163654D01*
X143593618Y-48163654D01*
X143600673Y-48173627D01*
X143631679Y-48199551D01*
X143638598Y-48204579D01*
X143863272Y-48345515D01*
X143870807Y-48349556D01*
X144112520Y-48458694D01*
X144120551Y-48461680D01*
X144374832Y-48537002D01*
X144383184Y-48538869D01*
X144645340Y-48578984D01*
X144653874Y-48579700D01*
X144919045Y-48583867D01*
X144927596Y-48583418D01*
X145190883Y-48551557D01*
X145199284Y-48549955D01*
X145455824Y-48482653D01*
X145463926Y-48479926D01*
X145708949Y-48378434D01*
X145716617Y-48374628D01*
X145945598Y-48240822D01*
X145952679Y-48236009D01*
X146032655Y-48173301D01*
X146041125Y-48161442D01*
X146034608Y-48149818D01*
X144830812Y-46946022D01*
X144816868Y-46938408D01*
X144815035Y-46938539D01*
X144808420Y-46942790D01*
X143600910Y-48150300D01*
X143593618Y-48163654D01*
X141741990Y-48163654D01*
X141746500Y-48122134D01*
X141746500Y-46557204D01*
X142805665Y-46557204D01*
X142820932Y-46821969D01*
X142822005Y-46830470D01*
X142873065Y-47090722D01*
X142875276Y-47098974D01*
X142961184Y-47349894D01*
X142964499Y-47357779D01*
X143083664Y-47594713D01*
X143088020Y-47602079D01*
X143217347Y-47790250D01*
X143227601Y-47798594D01*
X143241342Y-47791448D01*
X144445978Y-46586812D01*
X144452356Y-46575132D01*
X145182408Y-46575132D01*
X145182539Y-46576965D01*
X145186790Y-46583580D01*
X146393730Y-47790520D01*
X146405939Y-47797187D01*
X146417439Y-47788497D01*
X146514831Y-47655913D01*
X146519418Y-47648685D01*
X146645962Y-47415621D01*
X146649530Y-47407827D01*
X146743271Y-47159750D01*
X146745748Y-47151544D01*
X146804954Y-46893038D01*
X146806294Y-46884577D01*
X146830031Y-46618616D01*
X146830277Y-46613677D01*
X146830666Y-46576485D01*
X146830523Y-46571519D01*
X146812362Y-46305123D01*
X146811201Y-46296649D01*
X146757419Y-46036944D01*
X146755120Y-46028709D01*
X146666588Y-45778705D01*
X146663191Y-45770854D01*
X146541550Y-45535178D01*
X146537122Y-45527866D01*
X146418031Y-45358417D01*
X146407509Y-45350037D01*
X146394121Y-45357089D01*
X145190022Y-46561188D01*
X145182408Y-46575132D01*
X144452356Y-46575132D01*
X144453592Y-46572868D01*
X144453461Y-46571035D01*
X144449210Y-46564420D01*
X143241814Y-45357024D01*
X143229804Y-45350466D01*
X143218064Y-45359434D01*
X143109935Y-45509911D01*
X143105418Y-45517196D01*
X142981325Y-45751567D01*
X142977839Y-45759395D01*
X142886700Y-46008446D01*
X142884311Y-46016670D01*
X142827812Y-46275795D01*
X142826563Y-46284250D01*
X142805754Y-46548653D01*
X142805665Y-46557204D01*
X141746500Y-46557204D01*
X141746500Y-45025866D01*
X141742224Y-44986500D01*
X143594584Y-44986500D01*
X143600980Y-44997770D01*
X144805188Y-46201978D01*
X144819132Y-46209592D01*
X144820965Y-46209461D01*
X144827580Y-46205210D01*
X146034604Y-44998186D01*
X146041795Y-44985017D01*
X146034473Y-44974780D01*
X145987233Y-44936115D01*
X145980261Y-44931160D01*
X145754122Y-44792582D01*
X145746552Y-44788624D01*
X145503704Y-44682022D01*
X145495644Y-44679120D01*
X145240592Y-44606467D01*
X145232214Y-44604685D01*
X144969656Y-44567318D01*
X144961111Y-44566691D01*
X144695908Y-44565302D01*
X144687374Y-44565839D01*
X144424433Y-44600456D01*
X144416035Y-44602149D01*
X144160238Y-44672127D01*
X144152143Y-44674946D01*
X143908199Y-44778997D01*
X143900577Y-44782881D01*
X143673013Y-44919075D01*
X143665981Y-44923962D01*
X143603053Y-44974377D01*
X143594584Y-44986500D01*
X141742224Y-44986500D01*
X141739745Y-44963684D01*
X141688615Y-44827295D01*
X141601261Y-44710739D01*
X141484705Y-44623385D01*
X141348316Y-44572255D01*
X141286134Y-44565500D01*
X138189866Y-44565500D01*
X138127684Y-44572255D01*
X137991295Y-44623385D01*
X137874739Y-44710739D01*
X137787385Y-44827295D01*
X137736255Y-44963684D01*
X137729500Y-45025866D01*
X137729500Y-48122134D01*
X136209055Y-48122134D01*
X136179328Y-48073624D01*
X136024415Y-47892245D01*
X136018106Y-47884858D01*
X136014898Y-47881102D01*
X135993273Y-47862632D01*
X135975606Y-47847543D01*
X135822376Y-47716672D01*
X135606502Y-47584384D01*
X135601932Y-47582491D01*
X135601928Y-47582489D01*
X135377164Y-47489389D01*
X135377162Y-47489388D01*
X135372591Y-47487495D01*
X135287968Y-47467179D01*
X135131216Y-47429546D01*
X135131210Y-47429545D01*
X135126403Y-47428391D01*
X134874000Y-47408526D01*
X134621597Y-47428391D01*
X134616790Y-47429545D01*
X134616784Y-47429546D01*
X134460032Y-47467179D01*
X134375409Y-47487495D01*
X134370838Y-47489388D01*
X134370836Y-47489389D01*
X134146072Y-47582489D01*
X134146068Y-47582491D01*
X134141498Y-47584384D01*
X133925624Y-47716672D01*
X133772394Y-47847543D01*
X133754728Y-47862632D01*
X133733102Y-47881102D01*
X133729894Y-47884858D01*
X133723585Y-47892245D01*
X133568672Y-48073624D01*
X133436384Y-48289498D01*
X133434491Y-48294068D01*
X133434489Y-48294072D01*
X133341389Y-48518836D01*
X133339495Y-48523409D01*
X133319179Y-48608032D01*
X133304466Y-48669318D01*
X133280391Y-48769597D01*
X133260526Y-49022000D01*
X126361500Y-49022000D01*
X126361500Y-45705371D01*
X126381502Y-45637250D01*
X126398405Y-45616276D01*
X129055276Y-42959405D01*
X129117588Y-42925379D01*
X129144371Y-42922500D01*
X173828413Y-42922500D01*
X173902472Y-42946563D01*
G37*
%TD.AperFunction*%
M02*
