%FSLAX45Y45*%
G04 Gerber Fmt 4.5, Leading zero omitted, Abs format (unit mm)*
G04 Created by KiCad (PCBNEW (6.0.4-0)) date 2022-11-11 12:05:35*
%MOMM*%
%LPD*%
G01*
G04 APERTURE LIST*
%TA.AperFunction,Profile*%
%ADD10C,0.100000*%
%TD*%
%ADD11C,0.200000*%
G04 APERTURE END LIST*
D10*
X10000000Y-10000000D02*
X20000000Y-10000000D01*
X20000000Y-10000000D02*
X20000000Y-4000000D01*
X20000000Y-4000000D02*
X10000000Y-4000000D01*
X10000000Y-4000000D02*
X10000000Y-10000000D01*
X19900000Y-4300000D02*
G75*
G03*
X19900000Y-4300000I-200000J0D01*
G01*
X19900000Y-9700000D02*
G75*
G03*
X19900000Y-9700000I-200000J0D01*
G01*
X10500000Y-4300000D02*
G75*
G03*
X10500000Y-4300000I-200000J0D01*
G01*
X10500000Y-9700000D02*
G75*
G03*
X10500000Y-9700000I-200000J0D01*
G01*
D11*
X10252619Y-10315476D02*
X10252619Y-10115476D01*
X10300238Y-10115476D01*
X10328810Y-10125000D01*
X10347857Y-10144048D01*
X10357381Y-10163095D01*
X10366905Y-10201190D01*
X10366905Y-10229762D01*
X10357381Y-10267857D01*
X10347857Y-10286905D01*
X10328810Y-10305952D01*
X10300238Y-10315476D01*
X10252619Y-10315476D01*
X10452619Y-10315476D02*
X10452619Y-10182143D01*
X10452619Y-10220238D02*
X10462143Y-10201190D01*
X10471667Y-10191667D01*
X10490714Y-10182143D01*
X10509762Y-10182143D01*
X10576429Y-10315476D02*
X10576429Y-10182143D01*
X10576429Y-10115476D02*
X10566905Y-10125000D01*
X10576429Y-10134524D01*
X10585952Y-10125000D01*
X10576429Y-10115476D01*
X10576429Y-10134524D01*
X10700238Y-10315476D02*
X10681190Y-10305952D01*
X10671667Y-10286905D01*
X10671667Y-10115476D01*
X10805000Y-10315476D02*
X10785952Y-10305952D01*
X10776429Y-10286905D01*
X10776429Y-10115476D01*
X11033571Y-10315476D02*
X11033571Y-10115476D01*
X11100238Y-10258333D01*
X11166905Y-10115476D01*
X11166905Y-10315476D01*
X11347857Y-10315476D02*
X11347857Y-10210714D01*
X11338333Y-10191667D01*
X11319286Y-10182143D01*
X11281190Y-10182143D01*
X11262143Y-10191667D01*
X11347857Y-10305952D02*
X11328809Y-10315476D01*
X11281190Y-10315476D01*
X11262143Y-10305952D01*
X11252619Y-10286905D01*
X11252619Y-10267857D01*
X11262143Y-10248810D01*
X11281190Y-10239286D01*
X11328809Y-10239286D01*
X11347857Y-10229762D01*
X11443095Y-10182143D02*
X11443095Y-10382143D01*
X11443095Y-10191667D02*
X11462143Y-10182143D01*
X11500238Y-10182143D01*
X11519286Y-10191667D01*
X11528809Y-10201190D01*
X11538333Y-10220238D01*
X11538333Y-10277381D01*
X11528809Y-10296429D01*
X11519286Y-10305952D01*
X11500238Y-10315476D01*
X11462143Y-10315476D01*
X11443095Y-10305952D01*
X11624048Y-10296429D02*
X11633571Y-10305952D01*
X11624048Y-10315476D01*
X11614524Y-10305952D01*
X11624048Y-10296429D01*
X11624048Y-10315476D01*
X11624048Y-10191667D02*
X11633571Y-10201190D01*
X11624048Y-10210714D01*
X11614524Y-10201190D01*
X11624048Y-10191667D01*
X11624048Y-10210714D01*
M02*
