%FSLAX45Y45*%
G04 Gerber Fmt 4.5, Leading zero omitted, Abs format (unit mm)*
G04 Created by KiCad (PCBNEW (6.0.4-0)) date 2022-11-11 12:05:35*
%MOMM*%
%LPD*%
G01*
G04 APERTURE LIST*
%TA.AperFunction,Profile*%
%ADD10C,0.100000*%
%TD*%
%ADD11C,0.200000*%
%ADD12C,0.040000*%
%ADD13C,0.090000*%
%ADD14C,0.100000*%
%ADD15C,0.110000*%
%ADD16C,0.152000*%
G04 APERTURE END LIST*
D10*
X10000000Y-10000000D02*
X20000000Y-10000000D01*
X20000000Y-10000000D02*
X20000000Y-4000000D01*
X20000000Y-4000000D02*
X10000000Y-4000000D01*
X10000000Y-4000000D02*
X10000000Y-10000000D01*
X19900000Y-4300000D02*
G75*
G03*
X19900000Y-4300000I-200000J0D01*
G01*
X19900000Y-9700000D02*
G75*
G03*
X19900000Y-9700000I-200000J0D01*
G01*
X10500000Y-4300000D02*
G75*
G03*
X10500000Y-4300000I-200000J0D01*
G01*
X10500000Y-9700000D02*
G75*
G03*
X10500000Y-9700000I-200000J0D01*
G01*
D11*
D12*
X11384600Y-9162100D02*
X11424600Y-9202100D01*
X11424600Y-9162100D02*
X11384600Y-9202100D01*
X11638600Y-7511100D02*
X11678600Y-7551100D01*
X11678600Y-7511100D02*
X11638600Y-7551100D01*
X11761000Y-7620800D02*
X11801000Y-7660800D01*
X11801000Y-7620800D02*
X11761000Y-7660800D01*
X12121200Y-8679500D02*
X12161200Y-8719500D01*
X12161200Y-8679500D02*
X12121200Y-8719500D01*
X12260900Y-8565200D02*
X12300900Y-8605200D01*
X12300900Y-8565200D02*
X12260900Y-8605200D01*
X12400600Y-6876100D02*
X12440600Y-6916100D01*
X12440600Y-6876100D02*
X12400600Y-6916100D01*
X12540300Y-8677450D02*
X12580300Y-8717450D01*
X12580300Y-8677450D02*
X12540300Y-8717450D01*
X12540300Y-9695500D02*
X12580300Y-9735500D01*
X12580300Y-9695500D02*
X12540300Y-9735500D01*
X12718100Y-6876100D02*
X12758100Y-6916100D01*
X12758100Y-6876100D02*
X12718100Y-6916100D01*
X13327700Y-8476300D02*
X13367700Y-8516300D01*
X13367700Y-8476300D02*
X13327700Y-8516300D01*
X13480100Y-7295200D02*
X13520100Y-7335200D01*
X13520100Y-7295200D02*
X13480100Y-7335200D01*
X13721400Y-9085900D02*
X13761400Y-9125900D01*
X13761400Y-9085900D02*
X13721400Y-9125900D01*
X14254800Y-5275900D02*
X14294800Y-5315900D01*
X14294800Y-5275900D02*
X14254800Y-5315900D01*
X15347000Y-5275900D02*
X15387000Y-5315900D01*
X15387000Y-5275900D02*
X15347000Y-5315900D01*
X16655100Y-5796600D02*
X16695100Y-5836600D01*
X16695100Y-5796600D02*
X16655100Y-5836600D01*
X17417100Y-4196400D02*
X17457100Y-4236400D01*
X17457100Y-4196400D02*
X17417100Y-4236400D01*
X17798100Y-4145600D02*
X17838100Y-4185600D01*
X17838100Y-4145600D02*
X17798100Y-4185600D01*
X18102900Y-4755200D02*
X18142900Y-4795200D01*
X18142900Y-4755200D02*
X18102900Y-4795200D01*
D13*
X14992400Y-4889500D02*
G75*
G03*
X14992400Y-4889500I-45000J0D01*
G01*
X15246400Y-4889500D02*
G75*
G03*
X15246400Y-4889500I-45000J0D01*
G01*
X18197600Y-5267000D02*
G75*
G03*
X18197600Y-5267000I-45000J0D01*
G01*
X18324600Y-5267000D02*
G75*
G03*
X18324600Y-5267000I-45000J0D01*
G01*
X18451600Y-5267000D02*
G75*
G03*
X18451600Y-5267000I-45000J0D01*
G01*
X18578600Y-5267000D02*
G75*
G03*
X18578600Y-5267000I-45000J0D01*
G01*
D14*
X11482300Y-9612200D02*
X11482300Y-9712200D01*
X11432300Y-9662200D02*
X11532300Y-9662200D01*
X11611600Y-6403500D02*
X11611600Y-6503500D01*
X11561600Y-6453500D02*
X11661600Y-6453500D01*
X11736300Y-9612200D02*
X11736300Y-9712200D01*
X11686300Y-9662200D02*
X11786300Y-9662200D01*
X11865600Y-6403500D02*
X11865600Y-6503500D01*
X11815600Y-6453500D02*
X11915600Y-6453500D01*
X11990300Y-9612200D02*
X11990300Y-9712200D01*
X11940300Y-9662200D02*
X12040300Y-9662200D01*
X12119600Y-6403500D02*
X12119600Y-6503500D01*
X12069600Y-6453500D02*
X12169600Y-6453500D01*
X12373600Y-6403500D02*
X12373600Y-6503500D01*
X12323600Y-6453500D02*
X12423600Y-6453500D01*
X13581500Y-9313500D02*
X13581500Y-9413500D01*
X13531500Y-9363500D02*
X13631500Y-9363500D01*
X13581500Y-9763500D02*
X13581500Y-9863500D01*
X13531500Y-9813500D02*
X13631500Y-9813500D01*
X13741400Y-8168400D02*
X13741400Y-8268400D01*
X13691400Y-8218400D02*
X13791400Y-8218400D01*
X13741400Y-8422400D02*
X13741400Y-8522400D01*
X13691400Y-8472400D02*
X13791400Y-8472400D01*
X13741400Y-8676400D02*
X13741400Y-8776400D01*
X13691400Y-8726400D02*
X13791400Y-8726400D01*
X13804900Y-7430300D02*
X13804900Y-7530300D01*
X13754900Y-7480300D02*
X13854900Y-7480300D01*
X14231500Y-9313500D02*
X14231500Y-9413500D01*
X14181500Y-9363500D02*
X14281500Y-9363500D01*
X14231500Y-9763500D02*
X14231500Y-9863500D01*
X14181500Y-9813500D02*
X14281500Y-9813500D01*
X15925600Y-4624600D02*
X15925600Y-4724600D01*
X15875600Y-4674600D02*
X15975600Y-4674600D01*
X16179600Y-4624600D02*
X16179600Y-4724600D01*
X16129600Y-4674600D02*
X16229600Y-4674600D01*
X16433600Y-4624600D02*
X16433600Y-4724600D01*
X16383600Y-4674600D02*
X16483600Y-4674600D01*
X16687600Y-4624600D02*
X16687600Y-4724600D01*
X16637600Y-4674600D02*
X16737600Y-4674600D01*
D15*
X13526291Y-4941091D02*
X13526291Y-4863309D01*
X13448509Y-4863309D01*
X13448509Y-4941091D01*
X13526291Y-4941091D01*
X13526291Y-5957091D02*
X13526291Y-5879309D01*
X13448509Y-5879309D01*
X13448509Y-5957091D01*
X13526291Y-5957091D01*
D16*
X13973800Y-4733400D02*
X14049800Y-4657400D01*
X13973800Y-4581400D01*
X13897800Y-4657400D01*
X13973800Y-4733400D01*
X14481800Y-4733400D02*
X14557800Y-4657400D01*
X14481800Y-4581400D01*
X14405800Y-4657400D01*
X14481800Y-4733400D01*
D11*
X10252619Y-10315476D02*
X10252619Y-10115476D01*
X10300238Y-10115476D01*
X10328810Y-10125000D01*
X10347857Y-10144048D01*
X10357381Y-10163095D01*
X10366905Y-10201190D01*
X10366905Y-10229762D01*
X10357381Y-10267857D01*
X10347857Y-10286905D01*
X10328810Y-10305952D01*
X10300238Y-10315476D01*
X10252619Y-10315476D01*
X10452619Y-10315476D02*
X10452619Y-10182143D01*
X10452619Y-10220238D02*
X10462143Y-10201190D01*
X10471667Y-10191667D01*
X10490714Y-10182143D01*
X10509762Y-10182143D01*
X10576429Y-10315476D02*
X10576429Y-10182143D01*
X10576429Y-10115476D02*
X10566905Y-10125000D01*
X10576429Y-10134524D01*
X10585952Y-10125000D01*
X10576429Y-10115476D01*
X10576429Y-10134524D01*
X10700238Y-10315476D02*
X10681190Y-10305952D01*
X10671667Y-10286905D01*
X10671667Y-10115476D01*
X10805000Y-10315476D02*
X10785952Y-10305952D01*
X10776429Y-10286905D01*
X10776429Y-10115476D01*
X11033571Y-10315476D02*
X11033571Y-10115476D01*
X11100238Y-10258333D01*
X11166905Y-10115476D01*
X11166905Y-10315476D01*
X11347857Y-10315476D02*
X11347857Y-10210714D01*
X11338333Y-10191667D01*
X11319286Y-10182143D01*
X11281190Y-10182143D01*
X11262143Y-10191667D01*
X11347857Y-10305952D02*
X11328809Y-10315476D01*
X11281190Y-10315476D01*
X11262143Y-10305952D01*
X11252619Y-10286905D01*
X11252619Y-10267857D01*
X11262143Y-10248810D01*
X11281190Y-10239286D01*
X11328809Y-10239286D01*
X11347857Y-10229762D01*
X11443095Y-10182143D02*
X11443095Y-10382143D01*
X11443095Y-10191667D02*
X11462143Y-10182143D01*
X11500238Y-10182143D01*
X11519286Y-10191667D01*
X11528809Y-10201190D01*
X11538333Y-10220238D01*
X11538333Y-10277381D01*
X11528809Y-10296429D01*
X11519286Y-10305952D01*
X11500238Y-10315476D01*
X11462143Y-10315476D01*
X11443095Y-10305952D01*
X11624048Y-10296429D02*
X11633571Y-10305952D01*
X11624048Y-10315476D01*
X11614524Y-10305952D01*
X11624048Y-10296429D01*
X11624048Y-10315476D01*
X11624048Y-10191667D02*
X11633571Y-10201190D01*
X11624048Y-10210714D01*
X11614524Y-10201190D01*
X11624048Y-10191667D01*
X11624048Y-10210714D01*
D12*
X9955000Y-10625000D02*
X9995000Y-10665000D01*
X9995000Y-10625000D02*
X9955000Y-10665000D01*
D11*
X10290714Y-10535476D02*
X10309762Y-10535476D01*
X10328810Y-10545000D01*
X10338333Y-10554524D01*
X10347857Y-10573571D01*
X10357381Y-10611667D01*
X10357381Y-10659286D01*
X10347857Y-10697381D01*
X10338333Y-10716429D01*
X10328810Y-10725952D01*
X10309762Y-10735476D01*
X10290714Y-10735476D01*
X10271667Y-10725952D01*
X10262143Y-10716429D01*
X10252619Y-10697381D01*
X10243095Y-10659286D01*
X10243095Y-10611667D01*
X10252619Y-10573571D01*
X10262143Y-10554524D01*
X10271667Y-10545000D01*
X10290714Y-10535476D01*
X10443095Y-10716429D02*
X10452619Y-10725952D01*
X10443095Y-10735476D01*
X10433571Y-10725952D01*
X10443095Y-10716429D01*
X10443095Y-10735476D01*
X10624048Y-10602143D02*
X10624048Y-10735476D01*
X10576429Y-10525952D02*
X10528810Y-10668810D01*
X10652619Y-10668810D01*
X10766905Y-10535476D02*
X10785952Y-10535476D01*
X10805000Y-10545000D01*
X10814524Y-10554524D01*
X10824048Y-10573571D01*
X10833571Y-10611667D01*
X10833571Y-10659286D01*
X10824048Y-10697381D01*
X10814524Y-10716429D01*
X10805000Y-10725952D01*
X10785952Y-10735476D01*
X10766905Y-10735476D01*
X10747857Y-10725952D01*
X10738333Y-10716429D01*
X10728810Y-10697381D01*
X10719286Y-10659286D01*
X10719286Y-10611667D01*
X10728810Y-10573571D01*
X10738333Y-10554524D01*
X10747857Y-10545000D01*
X10766905Y-10535476D01*
X10957381Y-10535476D02*
X10976429Y-10535476D01*
X10995476Y-10545000D01*
X11005000Y-10554524D01*
X11014524Y-10573571D01*
X11024048Y-10611667D01*
X11024048Y-10659286D01*
X11014524Y-10697381D01*
X11005000Y-10716429D01*
X10995476Y-10725952D01*
X10976429Y-10735476D01*
X10957381Y-10735476D01*
X10938333Y-10725952D01*
X10928810Y-10716429D01*
X10919286Y-10697381D01*
X10909762Y-10659286D01*
X10909762Y-10611667D01*
X10919286Y-10573571D01*
X10928810Y-10554524D01*
X10938333Y-10545000D01*
X10957381Y-10535476D01*
X11109762Y-10735476D02*
X11109762Y-10602143D01*
X11109762Y-10621190D02*
X11119286Y-10611667D01*
X11138333Y-10602143D01*
X11166905Y-10602143D01*
X11185952Y-10611667D01*
X11195476Y-10630714D01*
X11195476Y-10735476D01*
X11195476Y-10630714D02*
X11205000Y-10611667D01*
X11224048Y-10602143D01*
X11252619Y-10602143D01*
X11271667Y-10611667D01*
X11281190Y-10630714D01*
X11281190Y-10735476D01*
X11376428Y-10735476D02*
X11376428Y-10602143D01*
X11376428Y-10621190D02*
X11385952Y-10611667D01*
X11405000Y-10602143D01*
X11433571Y-10602143D01*
X11452619Y-10611667D01*
X11462143Y-10630714D01*
X11462143Y-10735476D01*
X11462143Y-10630714D02*
X11471667Y-10611667D01*
X11490714Y-10602143D01*
X11519286Y-10602143D01*
X11538333Y-10611667D01*
X11547857Y-10630714D01*
X11547857Y-10735476D01*
X11938333Y-10525952D02*
X11766905Y-10783095D01*
X12195476Y-10535476D02*
X12214524Y-10535476D01*
X12233571Y-10545000D01*
X12243095Y-10554524D01*
X12252619Y-10573571D01*
X12262143Y-10611667D01*
X12262143Y-10659286D01*
X12252619Y-10697381D01*
X12243095Y-10716429D01*
X12233571Y-10725952D01*
X12214524Y-10735476D01*
X12195476Y-10735476D01*
X12176428Y-10725952D01*
X12166905Y-10716429D01*
X12157381Y-10697381D01*
X12147857Y-10659286D01*
X12147857Y-10611667D01*
X12157381Y-10573571D01*
X12166905Y-10554524D01*
X12176428Y-10545000D01*
X12195476Y-10535476D01*
X12347857Y-10716429D02*
X12357381Y-10725952D01*
X12347857Y-10735476D01*
X12338333Y-10725952D01*
X12347857Y-10716429D01*
X12347857Y-10735476D01*
X12481190Y-10535476D02*
X12500238Y-10535476D01*
X12519286Y-10545000D01*
X12528809Y-10554524D01*
X12538333Y-10573571D01*
X12547857Y-10611667D01*
X12547857Y-10659286D01*
X12538333Y-10697381D01*
X12528809Y-10716429D01*
X12519286Y-10725952D01*
X12500238Y-10735476D01*
X12481190Y-10735476D01*
X12462143Y-10725952D01*
X12452619Y-10716429D01*
X12443095Y-10697381D01*
X12433571Y-10659286D01*
X12433571Y-10611667D01*
X12443095Y-10573571D01*
X12452619Y-10554524D01*
X12462143Y-10545000D01*
X12481190Y-10535476D01*
X12738333Y-10735476D02*
X12624048Y-10735476D01*
X12681190Y-10735476D02*
X12681190Y-10535476D01*
X12662143Y-10564048D01*
X12643095Y-10583095D01*
X12624048Y-10592619D01*
X12919286Y-10535476D02*
X12824048Y-10535476D01*
X12814524Y-10630714D01*
X12824048Y-10621190D01*
X12843095Y-10611667D01*
X12890714Y-10611667D01*
X12909762Y-10621190D01*
X12919286Y-10630714D01*
X12928809Y-10649762D01*
X12928809Y-10697381D01*
X12919286Y-10716429D01*
X12909762Y-10725952D01*
X12890714Y-10735476D01*
X12843095Y-10735476D01*
X12824048Y-10725952D01*
X12814524Y-10716429D01*
X12995476Y-10535476D02*
X13128809Y-10535476D01*
X13043095Y-10735476D01*
X13195476Y-10535476D02*
X13195476Y-10573571D01*
X13271667Y-10535476D02*
X13271667Y-10573571D01*
X13566905Y-10811667D02*
X13557381Y-10802143D01*
X13538333Y-10773571D01*
X13528809Y-10754524D01*
X13519286Y-10725952D01*
X13509762Y-10678333D01*
X13509762Y-10640238D01*
X13519286Y-10592619D01*
X13528809Y-10564048D01*
X13538333Y-10545000D01*
X13557381Y-10516429D01*
X13566905Y-10506905D01*
X13747857Y-10735476D02*
X13633571Y-10735476D01*
X13690714Y-10735476D02*
X13690714Y-10535476D01*
X13671667Y-10564048D01*
X13652619Y-10583095D01*
X13633571Y-10592619D01*
X13862143Y-10621190D02*
X13843095Y-10611667D01*
X13833571Y-10602143D01*
X13824048Y-10583095D01*
X13824048Y-10573571D01*
X13833571Y-10554524D01*
X13843095Y-10545000D01*
X13862143Y-10535476D01*
X13900238Y-10535476D01*
X13919286Y-10545000D01*
X13928809Y-10554524D01*
X13938333Y-10573571D01*
X13938333Y-10583095D01*
X13928809Y-10602143D01*
X13919286Y-10611667D01*
X13900238Y-10621190D01*
X13862143Y-10621190D01*
X13843095Y-10630714D01*
X13833571Y-10640238D01*
X13824048Y-10659286D01*
X13824048Y-10697381D01*
X13833571Y-10716429D01*
X13843095Y-10725952D01*
X13862143Y-10735476D01*
X13900238Y-10735476D01*
X13919286Y-10725952D01*
X13928809Y-10716429D01*
X13938333Y-10697381D01*
X13938333Y-10659286D01*
X13928809Y-10640238D01*
X13919286Y-10630714D01*
X13900238Y-10621190D01*
X14176428Y-10735476D02*
X14176428Y-10535476D01*
X14262143Y-10735476D02*
X14262143Y-10630714D01*
X14252619Y-10611667D01*
X14233571Y-10602143D01*
X14205000Y-10602143D01*
X14185952Y-10611667D01*
X14176428Y-10621190D01*
X14385952Y-10735476D02*
X14366905Y-10725952D01*
X14357381Y-10716429D01*
X14347857Y-10697381D01*
X14347857Y-10640238D01*
X14357381Y-10621190D01*
X14366905Y-10611667D01*
X14385952Y-10602143D01*
X14414524Y-10602143D01*
X14433571Y-10611667D01*
X14443095Y-10621190D01*
X14452619Y-10640238D01*
X14452619Y-10697381D01*
X14443095Y-10716429D01*
X14433571Y-10725952D01*
X14414524Y-10735476D01*
X14385952Y-10735476D01*
X14566905Y-10735476D02*
X14547857Y-10725952D01*
X14538333Y-10706905D01*
X14538333Y-10535476D01*
X14719286Y-10725952D02*
X14700238Y-10735476D01*
X14662143Y-10735476D01*
X14643095Y-10725952D01*
X14633571Y-10706905D01*
X14633571Y-10630714D01*
X14643095Y-10611667D01*
X14662143Y-10602143D01*
X14700238Y-10602143D01*
X14719286Y-10611667D01*
X14728809Y-10630714D01*
X14728809Y-10649762D01*
X14633571Y-10668810D01*
X14805000Y-10725952D02*
X14824048Y-10735476D01*
X14862143Y-10735476D01*
X14881190Y-10725952D01*
X14890714Y-10706905D01*
X14890714Y-10697381D01*
X14881190Y-10678333D01*
X14862143Y-10668810D01*
X14833571Y-10668810D01*
X14814524Y-10659286D01*
X14805000Y-10640238D01*
X14805000Y-10630714D01*
X14814524Y-10611667D01*
X14833571Y-10602143D01*
X14862143Y-10602143D01*
X14881190Y-10611667D01*
X14957381Y-10811667D02*
X14966905Y-10802143D01*
X14985952Y-10773571D01*
X14995476Y-10754524D01*
X15005000Y-10725952D01*
X15014524Y-10678333D01*
X15014524Y-10640238D01*
X15005000Y-10592619D01*
X14995476Y-10564048D01*
X14985952Y-10545000D01*
X14966905Y-10516429D01*
X14957381Y-10506905D01*
D13*
X9995000Y-10909000D02*
G75*
G03*
X9995000Y-10909000I-45000J0D01*
G01*
D11*
X10290714Y-10799476D02*
X10309762Y-10799476D01*
X10328810Y-10809000D01*
X10338333Y-10818524D01*
X10347857Y-10837571D01*
X10357381Y-10875667D01*
X10357381Y-10923286D01*
X10347857Y-10961381D01*
X10338333Y-10980429D01*
X10328810Y-10989952D01*
X10309762Y-10999476D01*
X10290714Y-10999476D01*
X10271667Y-10989952D01*
X10262143Y-10980429D01*
X10252619Y-10961381D01*
X10243095Y-10923286D01*
X10243095Y-10875667D01*
X10252619Y-10837571D01*
X10262143Y-10818524D01*
X10271667Y-10809000D01*
X10290714Y-10799476D01*
X10443095Y-10980429D02*
X10452619Y-10989952D01*
X10443095Y-10999476D01*
X10433571Y-10989952D01*
X10443095Y-10980429D01*
X10443095Y-10999476D01*
X10547857Y-10999476D02*
X10585952Y-10999476D01*
X10605000Y-10989952D01*
X10614524Y-10980429D01*
X10633571Y-10951857D01*
X10643095Y-10913762D01*
X10643095Y-10837571D01*
X10633571Y-10818524D01*
X10624048Y-10809000D01*
X10605000Y-10799476D01*
X10566905Y-10799476D01*
X10547857Y-10809000D01*
X10538333Y-10818524D01*
X10528810Y-10837571D01*
X10528810Y-10885190D01*
X10538333Y-10904238D01*
X10547857Y-10913762D01*
X10566905Y-10923286D01*
X10605000Y-10923286D01*
X10624048Y-10913762D01*
X10633571Y-10904238D01*
X10643095Y-10885190D01*
X10766905Y-10799476D02*
X10785952Y-10799476D01*
X10805000Y-10809000D01*
X10814524Y-10818524D01*
X10824048Y-10837571D01*
X10833571Y-10875667D01*
X10833571Y-10923286D01*
X10824048Y-10961381D01*
X10814524Y-10980429D01*
X10805000Y-10989952D01*
X10785952Y-10999476D01*
X10766905Y-10999476D01*
X10747857Y-10989952D01*
X10738333Y-10980429D01*
X10728810Y-10961381D01*
X10719286Y-10923286D01*
X10719286Y-10875667D01*
X10728810Y-10837571D01*
X10738333Y-10818524D01*
X10747857Y-10809000D01*
X10766905Y-10799476D01*
X10957381Y-10799476D02*
X10976429Y-10799476D01*
X10995476Y-10809000D01*
X11005000Y-10818524D01*
X11014524Y-10837571D01*
X11024048Y-10875667D01*
X11024048Y-10923286D01*
X11014524Y-10961381D01*
X11005000Y-10980429D01*
X10995476Y-10989952D01*
X10976429Y-10999476D01*
X10957381Y-10999476D01*
X10938333Y-10989952D01*
X10928810Y-10980429D01*
X10919286Y-10961381D01*
X10909762Y-10923286D01*
X10909762Y-10875667D01*
X10919286Y-10837571D01*
X10928810Y-10818524D01*
X10938333Y-10809000D01*
X10957381Y-10799476D01*
X11109762Y-10999476D02*
X11109762Y-10866143D01*
X11109762Y-10885190D02*
X11119286Y-10875667D01*
X11138333Y-10866143D01*
X11166905Y-10866143D01*
X11185952Y-10875667D01*
X11195476Y-10894714D01*
X11195476Y-10999476D01*
X11195476Y-10894714D02*
X11205000Y-10875667D01*
X11224048Y-10866143D01*
X11252619Y-10866143D01*
X11271667Y-10875667D01*
X11281190Y-10894714D01*
X11281190Y-10999476D01*
X11376428Y-10999476D02*
X11376428Y-10866143D01*
X11376428Y-10885190D02*
X11385952Y-10875667D01*
X11405000Y-10866143D01*
X11433571Y-10866143D01*
X11452619Y-10875667D01*
X11462143Y-10894714D01*
X11462143Y-10999476D01*
X11462143Y-10894714D02*
X11471667Y-10875667D01*
X11490714Y-10866143D01*
X11519286Y-10866143D01*
X11538333Y-10875667D01*
X11547857Y-10894714D01*
X11547857Y-10999476D01*
X11938333Y-10789952D02*
X11766905Y-11047095D01*
X12195476Y-10799476D02*
X12214524Y-10799476D01*
X12233571Y-10809000D01*
X12243095Y-10818524D01*
X12252619Y-10837571D01*
X12262143Y-10875667D01*
X12262143Y-10923286D01*
X12252619Y-10961381D01*
X12243095Y-10980429D01*
X12233571Y-10989952D01*
X12214524Y-10999476D01*
X12195476Y-10999476D01*
X12176428Y-10989952D01*
X12166905Y-10980429D01*
X12157381Y-10961381D01*
X12147857Y-10923286D01*
X12147857Y-10875667D01*
X12157381Y-10837571D01*
X12166905Y-10818524D01*
X12176428Y-10809000D01*
X12195476Y-10799476D01*
X12347857Y-10980429D02*
X12357381Y-10989952D01*
X12347857Y-10999476D01*
X12338333Y-10989952D01*
X12347857Y-10980429D01*
X12347857Y-10999476D01*
X12481190Y-10799476D02*
X12500238Y-10799476D01*
X12519286Y-10809000D01*
X12528809Y-10818524D01*
X12538333Y-10837571D01*
X12547857Y-10875667D01*
X12547857Y-10923286D01*
X12538333Y-10961381D01*
X12528809Y-10980429D01*
X12519286Y-10989952D01*
X12500238Y-10999476D01*
X12481190Y-10999476D01*
X12462143Y-10989952D01*
X12452619Y-10980429D01*
X12443095Y-10961381D01*
X12433571Y-10923286D01*
X12433571Y-10875667D01*
X12443095Y-10837571D01*
X12452619Y-10818524D01*
X12462143Y-10809000D01*
X12481190Y-10799476D01*
X12614524Y-10799476D02*
X12738333Y-10799476D01*
X12671667Y-10875667D01*
X12700238Y-10875667D01*
X12719286Y-10885190D01*
X12728809Y-10894714D01*
X12738333Y-10913762D01*
X12738333Y-10961381D01*
X12728809Y-10980429D01*
X12719286Y-10989952D01*
X12700238Y-10999476D01*
X12643095Y-10999476D01*
X12624048Y-10989952D01*
X12614524Y-10980429D01*
X12919286Y-10799476D02*
X12824048Y-10799476D01*
X12814524Y-10894714D01*
X12824048Y-10885190D01*
X12843095Y-10875667D01*
X12890714Y-10875667D01*
X12909762Y-10885190D01*
X12919286Y-10894714D01*
X12928809Y-10913762D01*
X12928809Y-10961381D01*
X12919286Y-10980429D01*
X12909762Y-10989952D01*
X12890714Y-10999476D01*
X12843095Y-10999476D01*
X12824048Y-10989952D01*
X12814524Y-10980429D01*
X13100238Y-10866143D02*
X13100238Y-10999476D01*
X13052619Y-10789952D02*
X13005000Y-10932810D01*
X13128809Y-10932810D01*
X13195476Y-10799476D02*
X13195476Y-10837571D01*
X13271667Y-10799476D02*
X13271667Y-10837571D01*
X13566905Y-11075667D02*
X13557381Y-11066143D01*
X13538333Y-11037571D01*
X13528809Y-11018524D01*
X13519286Y-10989952D01*
X13509762Y-10942333D01*
X13509762Y-10904238D01*
X13519286Y-10856619D01*
X13528809Y-10828048D01*
X13538333Y-10809000D01*
X13557381Y-10780429D01*
X13566905Y-10770905D01*
X13728809Y-10799476D02*
X13690714Y-10799476D01*
X13671667Y-10809000D01*
X13662143Y-10818524D01*
X13643095Y-10847095D01*
X13633571Y-10885190D01*
X13633571Y-10961381D01*
X13643095Y-10980429D01*
X13652619Y-10989952D01*
X13671667Y-10999476D01*
X13709762Y-10999476D01*
X13728809Y-10989952D01*
X13738333Y-10980429D01*
X13747857Y-10961381D01*
X13747857Y-10913762D01*
X13738333Y-10894714D01*
X13728809Y-10885190D01*
X13709762Y-10875667D01*
X13671667Y-10875667D01*
X13652619Y-10885190D01*
X13643095Y-10894714D01*
X13633571Y-10913762D01*
X13985952Y-10999476D02*
X13985952Y-10799476D01*
X14071667Y-10999476D02*
X14071667Y-10894714D01*
X14062143Y-10875667D01*
X14043095Y-10866143D01*
X14014524Y-10866143D01*
X13995476Y-10875667D01*
X13985952Y-10885190D01*
X14195476Y-10999476D02*
X14176428Y-10989952D01*
X14166905Y-10980429D01*
X14157381Y-10961381D01*
X14157381Y-10904238D01*
X14166905Y-10885190D01*
X14176428Y-10875667D01*
X14195476Y-10866143D01*
X14224048Y-10866143D01*
X14243095Y-10875667D01*
X14252619Y-10885190D01*
X14262143Y-10904238D01*
X14262143Y-10961381D01*
X14252619Y-10980429D01*
X14243095Y-10989952D01*
X14224048Y-10999476D01*
X14195476Y-10999476D01*
X14376428Y-10999476D02*
X14357381Y-10989952D01*
X14347857Y-10970905D01*
X14347857Y-10799476D01*
X14528809Y-10989952D02*
X14509762Y-10999476D01*
X14471667Y-10999476D01*
X14452619Y-10989952D01*
X14443095Y-10970905D01*
X14443095Y-10894714D01*
X14452619Y-10875667D01*
X14471667Y-10866143D01*
X14509762Y-10866143D01*
X14528809Y-10875667D01*
X14538333Y-10894714D01*
X14538333Y-10913762D01*
X14443095Y-10932810D01*
X14614524Y-10989952D02*
X14633571Y-10999476D01*
X14671667Y-10999476D01*
X14690714Y-10989952D01*
X14700238Y-10970905D01*
X14700238Y-10961381D01*
X14690714Y-10942333D01*
X14671667Y-10932810D01*
X14643095Y-10932810D01*
X14624048Y-10923286D01*
X14614524Y-10904238D01*
X14614524Y-10894714D01*
X14624048Y-10875667D01*
X14643095Y-10866143D01*
X14671667Y-10866143D01*
X14690714Y-10875667D01*
X14766905Y-11075667D02*
X14776428Y-11066143D01*
X14795476Y-11037571D01*
X14805000Y-11018524D01*
X14814524Y-10989952D01*
X14824048Y-10942333D01*
X14824048Y-10904238D01*
X14814524Y-10856619D01*
X14805000Y-10828048D01*
X14795476Y-10809000D01*
X14776428Y-10780429D01*
X14766905Y-10770905D01*
D14*
X9945000Y-11123000D02*
X9945000Y-11223000D01*
X9895000Y-11173000D02*
X9995000Y-11173000D01*
D11*
X10357381Y-11263476D02*
X10243095Y-11263476D01*
X10300238Y-11263476D02*
X10300238Y-11063476D01*
X10281190Y-11092048D01*
X10262143Y-11111095D01*
X10243095Y-11120619D01*
X10443095Y-11244428D02*
X10452619Y-11253952D01*
X10443095Y-11263476D01*
X10433571Y-11253952D01*
X10443095Y-11244428D01*
X10443095Y-11263476D01*
X10576429Y-11063476D02*
X10595476Y-11063476D01*
X10614524Y-11073000D01*
X10624048Y-11082524D01*
X10633571Y-11101571D01*
X10643095Y-11139667D01*
X10643095Y-11187286D01*
X10633571Y-11225381D01*
X10624048Y-11244428D01*
X10614524Y-11253952D01*
X10595476Y-11263476D01*
X10576429Y-11263476D01*
X10557381Y-11253952D01*
X10547857Y-11244428D01*
X10538333Y-11225381D01*
X10528810Y-11187286D01*
X10528810Y-11139667D01*
X10538333Y-11101571D01*
X10547857Y-11082524D01*
X10557381Y-11073000D01*
X10576429Y-11063476D01*
X10766905Y-11063476D02*
X10785952Y-11063476D01*
X10805000Y-11073000D01*
X10814524Y-11082524D01*
X10824048Y-11101571D01*
X10833571Y-11139667D01*
X10833571Y-11187286D01*
X10824048Y-11225381D01*
X10814524Y-11244428D01*
X10805000Y-11253952D01*
X10785952Y-11263476D01*
X10766905Y-11263476D01*
X10747857Y-11253952D01*
X10738333Y-11244428D01*
X10728810Y-11225381D01*
X10719286Y-11187286D01*
X10719286Y-11139667D01*
X10728810Y-11101571D01*
X10738333Y-11082524D01*
X10747857Y-11073000D01*
X10766905Y-11063476D01*
X10957381Y-11063476D02*
X10976429Y-11063476D01*
X10995476Y-11073000D01*
X11005000Y-11082524D01*
X11014524Y-11101571D01*
X11024048Y-11139667D01*
X11024048Y-11187286D01*
X11014524Y-11225381D01*
X11005000Y-11244428D01*
X10995476Y-11253952D01*
X10976429Y-11263476D01*
X10957381Y-11263476D01*
X10938333Y-11253952D01*
X10928810Y-11244428D01*
X10919286Y-11225381D01*
X10909762Y-11187286D01*
X10909762Y-11139667D01*
X10919286Y-11101571D01*
X10928810Y-11082524D01*
X10938333Y-11073000D01*
X10957381Y-11063476D01*
X11109762Y-11263476D02*
X11109762Y-11130143D01*
X11109762Y-11149190D02*
X11119286Y-11139667D01*
X11138333Y-11130143D01*
X11166905Y-11130143D01*
X11185952Y-11139667D01*
X11195476Y-11158714D01*
X11195476Y-11263476D01*
X11195476Y-11158714D02*
X11205000Y-11139667D01*
X11224048Y-11130143D01*
X11252619Y-11130143D01*
X11271667Y-11139667D01*
X11281190Y-11158714D01*
X11281190Y-11263476D01*
X11376428Y-11263476D02*
X11376428Y-11130143D01*
X11376428Y-11149190D02*
X11385952Y-11139667D01*
X11405000Y-11130143D01*
X11433571Y-11130143D01*
X11452619Y-11139667D01*
X11462143Y-11158714D01*
X11462143Y-11263476D01*
X11462143Y-11158714D02*
X11471667Y-11139667D01*
X11490714Y-11130143D01*
X11519286Y-11130143D01*
X11538333Y-11139667D01*
X11547857Y-11158714D01*
X11547857Y-11263476D01*
X11938333Y-11053952D02*
X11766905Y-11311095D01*
X12195476Y-11063476D02*
X12214524Y-11063476D01*
X12233571Y-11073000D01*
X12243095Y-11082524D01*
X12252619Y-11101571D01*
X12262143Y-11139667D01*
X12262143Y-11187286D01*
X12252619Y-11225381D01*
X12243095Y-11244428D01*
X12233571Y-11253952D01*
X12214524Y-11263476D01*
X12195476Y-11263476D01*
X12176428Y-11253952D01*
X12166905Y-11244428D01*
X12157381Y-11225381D01*
X12147857Y-11187286D01*
X12147857Y-11139667D01*
X12157381Y-11101571D01*
X12166905Y-11082524D01*
X12176428Y-11073000D01*
X12195476Y-11063476D01*
X12347857Y-11244428D02*
X12357381Y-11253952D01*
X12347857Y-11263476D01*
X12338333Y-11253952D01*
X12347857Y-11244428D01*
X12347857Y-11263476D01*
X12481190Y-11063476D02*
X12500238Y-11063476D01*
X12519286Y-11073000D01*
X12528809Y-11082524D01*
X12538333Y-11101571D01*
X12547857Y-11139667D01*
X12547857Y-11187286D01*
X12538333Y-11225381D01*
X12528809Y-11244428D01*
X12519286Y-11253952D01*
X12500238Y-11263476D01*
X12481190Y-11263476D01*
X12462143Y-11253952D01*
X12452619Y-11244428D01*
X12443095Y-11225381D01*
X12433571Y-11187286D01*
X12433571Y-11139667D01*
X12443095Y-11101571D01*
X12452619Y-11082524D01*
X12462143Y-11073000D01*
X12481190Y-11063476D01*
X12614524Y-11063476D02*
X12738333Y-11063476D01*
X12671667Y-11139667D01*
X12700238Y-11139667D01*
X12719286Y-11149190D01*
X12728809Y-11158714D01*
X12738333Y-11177762D01*
X12738333Y-11225381D01*
X12728809Y-11244428D01*
X12719286Y-11253952D01*
X12700238Y-11263476D01*
X12643095Y-11263476D01*
X12624048Y-11253952D01*
X12614524Y-11244428D01*
X12833571Y-11263476D02*
X12871667Y-11263476D01*
X12890714Y-11253952D01*
X12900238Y-11244428D01*
X12919286Y-11215857D01*
X12928809Y-11177762D01*
X12928809Y-11101571D01*
X12919286Y-11082524D01*
X12909762Y-11073000D01*
X12890714Y-11063476D01*
X12852619Y-11063476D01*
X12833571Y-11073000D01*
X12824048Y-11082524D01*
X12814524Y-11101571D01*
X12814524Y-11149190D01*
X12824048Y-11168238D01*
X12833571Y-11177762D01*
X12852619Y-11187286D01*
X12890714Y-11187286D01*
X12909762Y-11177762D01*
X12919286Y-11168238D01*
X12928809Y-11149190D01*
X13100238Y-11130143D02*
X13100238Y-11263476D01*
X13052619Y-11053952D02*
X13005000Y-11196809D01*
X13128809Y-11196809D01*
X13195476Y-11063476D02*
X13195476Y-11101571D01*
X13271667Y-11063476D02*
X13271667Y-11101571D01*
X13566905Y-11339667D02*
X13557381Y-11330143D01*
X13538333Y-11301571D01*
X13528809Y-11282524D01*
X13519286Y-11253952D01*
X13509762Y-11206333D01*
X13509762Y-11168238D01*
X13519286Y-11120619D01*
X13528809Y-11092048D01*
X13538333Y-11073000D01*
X13557381Y-11044429D01*
X13566905Y-11034905D01*
X13747857Y-11263476D02*
X13633571Y-11263476D01*
X13690714Y-11263476D02*
X13690714Y-11063476D01*
X13671667Y-11092048D01*
X13652619Y-11111095D01*
X13633571Y-11120619D01*
X13843095Y-11263476D02*
X13881190Y-11263476D01*
X13900238Y-11253952D01*
X13909762Y-11244428D01*
X13928809Y-11215857D01*
X13938333Y-11177762D01*
X13938333Y-11101571D01*
X13928809Y-11082524D01*
X13919286Y-11073000D01*
X13900238Y-11063476D01*
X13862143Y-11063476D01*
X13843095Y-11073000D01*
X13833571Y-11082524D01*
X13824048Y-11101571D01*
X13824048Y-11149190D01*
X13833571Y-11168238D01*
X13843095Y-11177762D01*
X13862143Y-11187286D01*
X13900238Y-11187286D01*
X13919286Y-11177762D01*
X13928809Y-11168238D01*
X13938333Y-11149190D01*
X14176428Y-11263476D02*
X14176428Y-11063476D01*
X14262143Y-11263476D02*
X14262143Y-11158714D01*
X14252619Y-11139667D01*
X14233571Y-11130143D01*
X14205000Y-11130143D01*
X14185952Y-11139667D01*
X14176428Y-11149190D01*
X14385952Y-11263476D02*
X14366905Y-11253952D01*
X14357381Y-11244428D01*
X14347857Y-11225381D01*
X14347857Y-11168238D01*
X14357381Y-11149190D01*
X14366905Y-11139667D01*
X14385952Y-11130143D01*
X14414524Y-11130143D01*
X14433571Y-11139667D01*
X14443095Y-11149190D01*
X14452619Y-11168238D01*
X14452619Y-11225381D01*
X14443095Y-11244428D01*
X14433571Y-11253952D01*
X14414524Y-11263476D01*
X14385952Y-11263476D01*
X14566905Y-11263476D02*
X14547857Y-11253952D01*
X14538333Y-11234905D01*
X14538333Y-11063476D01*
X14719286Y-11253952D02*
X14700238Y-11263476D01*
X14662143Y-11263476D01*
X14643095Y-11253952D01*
X14633571Y-11234905D01*
X14633571Y-11158714D01*
X14643095Y-11139667D01*
X14662143Y-11130143D01*
X14700238Y-11130143D01*
X14719286Y-11139667D01*
X14728809Y-11158714D01*
X14728809Y-11177762D01*
X14633571Y-11196809D01*
X14805000Y-11253952D02*
X14824048Y-11263476D01*
X14862143Y-11263476D01*
X14881190Y-11253952D01*
X14890714Y-11234905D01*
X14890714Y-11225381D01*
X14881190Y-11206333D01*
X14862143Y-11196809D01*
X14833571Y-11196809D01*
X14814524Y-11187286D01*
X14805000Y-11168238D01*
X14805000Y-11158714D01*
X14814524Y-11139667D01*
X14833571Y-11130143D01*
X14862143Y-11130143D01*
X14881190Y-11139667D01*
X14957381Y-11339667D02*
X14966905Y-11330143D01*
X14985952Y-11301571D01*
X14995476Y-11282524D01*
X15005000Y-11253952D01*
X15014524Y-11206333D01*
X15014524Y-11168238D01*
X15005000Y-11120619D01*
X14995476Y-11092048D01*
X14985952Y-11073000D01*
X14966905Y-11044429D01*
X14957381Y-11034905D01*
D15*
X9978891Y-11475891D02*
X9978891Y-11398109D01*
X9901109Y-11398109D01*
X9901109Y-11475891D01*
X9978891Y-11475891D01*
D11*
X10357381Y-11527476D02*
X10243095Y-11527476D01*
X10300238Y-11527476D02*
X10300238Y-11327476D01*
X10281190Y-11356048D01*
X10262143Y-11375095D01*
X10243095Y-11384619D01*
X10443095Y-11508428D02*
X10452619Y-11517952D01*
X10443095Y-11527476D01*
X10433571Y-11517952D01*
X10443095Y-11508428D01*
X10443095Y-11527476D01*
X10643095Y-11527476D02*
X10528810Y-11527476D01*
X10585952Y-11527476D02*
X10585952Y-11327476D01*
X10566905Y-11356048D01*
X10547857Y-11375095D01*
X10528810Y-11384619D01*
X10766905Y-11327476D02*
X10785952Y-11327476D01*
X10805000Y-11337000D01*
X10814524Y-11346524D01*
X10824048Y-11365571D01*
X10833571Y-11403667D01*
X10833571Y-11451286D01*
X10824048Y-11489381D01*
X10814524Y-11508428D01*
X10805000Y-11517952D01*
X10785952Y-11527476D01*
X10766905Y-11527476D01*
X10747857Y-11517952D01*
X10738333Y-11508428D01*
X10728810Y-11489381D01*
X10719286Y-11451286D01*
X10719286Y-11403667D01*
X10728810Y-11365571D01*
X10738333Y-11346524D01*
X10747857Y-11337000D01*
X10766905Y-11327476D01*
X10957381Y-11327476D02*
X10976429Y-11327476D01*
X10995476Y-11337000D01*
X11005000Y-11346524D01*
X11014524Y-11365571D01*
X11024048Y-11403667D01*
X11024048Y-11451286D01*
X11014524Y-11489381D01*
X11005000Y-11508428D01*
X10995476Y-11517952D01*
X10976429Y-11527476D01*
X10957381Y-11527476D01*
X10938333Y-11517952D01*
X10928810Y-11508428D01*
X10919286Y-11489381D01*
X10909762Y-11451286D01*
X10909762Y-11403667D01*
X10919286Y-11365571D01*
X10928810Y-11346524D01*
X10938333Y-11337000D01*
X10957381Y-11327476D01*
X11109762Y-11527476D02*
X11109762Y-11394143D01*
X11109762Y-11413190D02*
X11119286Y-11403667D01*
X11138333Y-11394143D01*
X11166905Y-11394143D01*
X11185952Y-11403667D01*
X11195476Y-11422714D01*
X11195476Y-11527476D01*
X11195476Y-11422714D02*
X11205000Y-11403667D01*
X11224048Y-11394143D01*
X11252619Y-11394143D01*
X11271667Y-11403667D01*
X11281190Y-11422714D01*
X11281190Y-11527476D01*
X11376428Y-11527476D02*
X11376428Y-11394143D01*
X11376428Y-11413190D02*
X11385952Y-11403667D01*
X11405000Y-11394143D01*
X11433571Y-11394143D01*
X11452619Y-11403667D01*
X11462143Y-11422714D01*
X11462143Y-11527476D01*
X11462143Y-11422714D02*
X11471667Y-11403667D01*
X11490714Y-11394143D01*
X11519286Y-11394143D01*
X11538333Y-11403667D01*
X11547857Y-11422714D01*
X11547857Y-11527476D01*
X11938333Y-11317952D02*
X11766905Y-11575095D01*
X12195476Y-11327476D02*
X12214524Y-11327476D01*
X12233571Y-11337000D01*
X12243095Y-11346524D01*
X12252619Y-11365571D01*
X12262143Y-11403667D01*
X12262143Y-11451286D01*
X12252619Y-11489381D01*
X12243095Y-11508428D01*
X12233571Y-11517952D01*
X12214524Y-11527476D01*
X12195476Y-11527476D01*
X12176428Y-11517952D01*
X12166905Y-11508428D01*
X12157381Y-11489381D01*
X12147857Y-11451286D01*
X12147857Y-11403667D01*
X12157381Y-11365571D01*
X12166905Y-11346524D01*
X12176428Y-11337000D01*
X12195476Y-11327476D01*
X12347857Y-11508428D02*
X12357381Y-11517952D01*
X12347857Y-11527476D01*
X12338333Y-11517952D01*
X12347857Y-11508428D01*
X12347857Y-11527476D01*
X12481190Y-11327476D02*
X12500238Y-11327476D01*
X12519286Y-11337000D01*
X12528809Y-11346524D01*
X12538333Y-11365571D01*
X12547857Y-11403667D01*
X12547857Y-11451286D01*
X12538333Y-11489381D01*
X12528809Y-11508428D01*
X12519286Y-11517952D01*
X12500238Y-11527476D01*
X12481190Y-11527476D01*
X12462143Y-11517952D01*
X12452619Y-11508428D01*
X12443095Y-11489381D01*
X12433571Y-11451286D01*
X12433571Y-11403667D01*
X12443095Y-11365571D01*
X12452619Y-11346524D01*
X12462143Y-11337000D01*
X12481190Y-11327476D01*
X12719286Y-11394143D02*
X12719286Y-11527476D01*
X12671667Y-11317952D02*
X12624048Y-11460809D01*
X12747857Y-11460809D01*
X12805000Y-11327476D02*
X12928809Y-11327476D01*
X12862143Y-11403667D01*
X12890714Y-11403667D01*
X12909762Y-11413190D01*
X12919286Y-11422714D01*
X12928809Y-11441762D01*
X12928809Y-11489381D01*
X12919286Y-11508428D01*
X12909762Y-11517952D01*
X12890714Y-11527476D01*
X12833571Y-11527476D01*
X12814524Y-11517952D01*
X12805000Y-11508428D01*
X12995476Y-11327476D02*
X13119286Y-11327476D01*
X13052619Y-11403667D01*
X13081190Y-11403667D01*
X13100238Y-11413190D01*
X13109762Y-11422714D01*
X13119286Y-11441762D01*
X13119286Y-11489381D01*
X13109762Y-11508428D01*
X13100238Y-11517952D01*
X13081190Y-11527476D01*
X13024048Y-11527476D01*
X13005000Y-11517952D01*
X12995476Y-11508428D01*
X13195476Y-11327476D02*
X13195476Y-11365571D01*
X13271667Y-11327476D02*
X13271667Y-11365571D01*
X13566905Y-11603667D02*
X13557381Y-11594143D01*
X13538333Y-11565571D01*
X13528809Y-11546524D01*
X13519286Y-11517952D01*
X13509762Y-11470333D01*
X13509762Y-11432238D01*
X13519286Y-11384619D01*
X13528809Y-11356048D01*
X13538333Y-11337000D01*
X13557381Y-11308428D01*
X13566905Y-11298905D01*
X13633571Y-11346524D02*
X13643095Y-11337000D01*
X13662143Y-11327476D01*
X13709762Y-11327476D01*
X13728809Y-11337000D01*
X13738333Y-11346524D01*
X13747857Y-11365571D01*
X13747857Y-11384619D01*
X13738333Y-11413190D01*
X13624048Y-11527476D01*
X13747857Y-11527476D01*
X13985952Y-11527476D02*
X13985952Y-11327476D01*
X14071667Y-11527476D02*
X14071667Y-11422714D01*
X14062143Y-11403667D01*
X14043095Y-11394143D01*
X14014524Y-11394143D01*
X13995476Y-11403667D01*
X13985952Y-11413190D01*
X14195476Y-11527476D02*
X14176428Y-11517952D01*
X14166905Y-11508428D01*
X14157381Y-11489381D01*
X14157381Y-11432238D01*
X14166905Y-11413190D01*
X14176428Y-11403667D01*
X14195476Y-11394143D01*
X14224048Y-11394143D01*
X14243095Y-11403667D01*
X14252619Y-11413190D01*
X14262143Y-11432238D01*
X14262143Y-11489381D01*
X14252619Y-11508428D01*
X14243095Y-11517952D01*
X14224048Y-11527476D01*
X14195476Y-11527476D01*
X14376428Y-11527476D02*
X14357381Y-11517952D01*
X14347857Y-11498905D01*
X14347857Y-11327476D01*
X14528809Y-11517952D02*
X14509762Y-11527476D01*
X14471667Y-11527476D01*
X14452619Y-11517952D01*
X14443095Y-11498905D01*
X14443095Y-11422714D01*
X14452619Y-11403667D01*
X14471667Y-11394143D01*
X14509762Y-11394143D01*
X14528809Y-11403667D01*
X14538333Y-11422714D01*
X14538333Y-11441762D01*
X14443095Y-11460809D01*
X14614524Y-11517952D02*
X14633571Y-11527476D01*
X14671667Y-11527476D01*
X14690714Y-11517952D01*
X14700238Y-11498905D01*
X14700238Y-11489381D01*
X14690714Y-11470333D01*
X14671667Y-11460809D01*
X14643095Y-11460809D01*
X14624048Y-11451286D01*
X14614524Y-11432238D01*
X14614524Y-11422714D01*
X14624048Y-11403667D01*
X14643095Y-11394143D01*
X14671667Y-11394143D01*
X14690714Y-11403667D01*
X14766905Y-11603667D02*
X14776428Y-11594143D01*
X14795476Y-11565571D01*
X14805000Y-11546524D01*
X14814524Y-11517952D01*
X14824048Y-11470333D01*
X14824048Y-11432238D01*
X14814524Y-11384619D01*
X14805000Y-11356048D01*
X14795476Y-11337000D01*
X14776428Y-11308428D01*
X14766905Y-11298905D01*
D16*
X9919000Y-11777000D02*
X9995000Y-11701000D01*
X9919000Y-11625000D01*
X9843000Y-11701000D01*
X9919000Y-11777000D01*
D11*
X10357381Y-11791476D02*
X10243095Y-11791476D01*
X10300238Y-11791476D02*
X10300238Y-11591476D01*
X10281190Y-11620048D01*
X10262143Y-11639095D01*
X10243095Y-11648619D01*
X10443095Y-11772428D02*
X10452619Y-11781952D01*
X10443095Y-11791476D01*
X10433571Y-11781952D01*
X10443095Y-11772428D01*
X10443095Y-11791476D01*
X10633571Y-11591476D02*
X10538333Y-11591476D01*
X10528810Y-11686714D01*
X10538333Y-11677190D01*
X10557381Y-11667667D01*
X10605000Y-11667667D01*
X10624048Y-11677190D01*
X10633571Y-11686714D01*
X10643095Y-11705762D01*
X10643095Y-11753381D01*
X10633571Y-11772428D01*
X10624048Y-11781952D01*
X10605000Y-11791476D01*
X10557381Y-11791476D01*
X10538333Y-11781952D01*
X10528810Y-11772428D01*
X10719286Y-11610524D02*
X10728810Y-11601000D01*
X10747857Y-11591476D01*
X10795476Y-11591476D01*
X10814524Y-11601000D01*
X10824048Y-11610524D01*
X10833571Y-11629571D01*
X10833571Y-11648619D01*
X10824048Y-11677190D01*
X10709762Y-11791476D01*
X10833571Y-11791476D01*
X10957381Y-11591476D02*
X10976429Y-11591476D01*
X10995476Y-11601000D01*
X11005000Y-11610524D01*
X11014524Y-11629571D01*
X11024048Y-11667667D01*
X11024048Y-11715286D01*
X11014524Y-11753381D01*
X11005000Y-11772428D01*
X10995476Y-11781952D01*
X10976429Y-11791476D01*
X10957381Y-11791476D01*
X10938333Y-11781952D01*
X10928810Y-11772428D01*
X10919286Y-11753381D01*
X10909762Y-11715286D01*
X10909762Y-11667667D01*
X10919286Y-11629571D01*
X10928810Y-11610524D01*
X10938333Y-11601000D01*
X10957381Y-11591476D01*
X11109762Y-11791476D02*
X11109762Y-11658143D01*
X11109762Y-11677190D02*
X11119286Y-11667667D01*
X11138333Y-11658143D01*
X11166905Y-11658143D01*
X11185952Y-11667667D01*
X11195476Y-11686714D01*
X11195476Y-11791476D01*
X11195476Y-11686714D02*
X11205000Y-11667667D01*
X11224048Y-11658143D01*
X11252619Y-11658143D01*
X11271667Y-11667667D01*
X11281190Y-11686714D01*
X11281190Y-11791476D01*
X11376428Y-11791476D02*
X11376428Y-11658143D01*
X11376428Y-11677190D02*
X11385952Y-11667667D01*
X11405000Y-11658143D01*
X11433571Y-11658143D01*
X11452619Y-11667667D01*
X11462143Y-11686714D01*
X11462143Y-11791476D01*
X11462143Y-11686714D02*
X11471667Y-11667667D01*
X11490714Y-11658143D01*
X11519286Y-11658143D01*
X11538333Y-11667667D01*
X11547857Y-11686714D01*
X11547857Y-11791476D01*
X11938333Y-11581952D02*
X11766905Y-11839095D01*
X12195476Y-11591476D02*
X12214524Y-11591476D01*
X12233571Y-11601000D01*
X12243095Y-11610524D01*
X12252619Y-11629571D01*
X12262143Y-11667667D01*
X12262143Y-11715286D01*
X12252619Y-11753381D01*
X12243095Y-11772428D01*
X12233571Y-11781952D01*
X12214524Y-11791476D01*
X12195476Y-11791476D01*
X12176428Y-11781952D01*
X12166905Y-11772428D01*
X12157381Y-11753381D01*
X12147857Y-11715286D01*
X12147857Y-11667667D01*
X12157381Y-11629571D01*
X12166905Y-11610524D01*
X12176428Y-11601000D01*
X12195476Y-11591476D01*
X12347857Y-11772428D02*
X12357381Y-11781952D01*
X12347857Y-11791476D01*
X12338333Y-11781952D01*
X12347857Y-11772428D01*
X12347857Y-11791476D01*
X12481190Y-11591476D02*
X12500238Y-11591476D01*
X12519286Y-11601000D01*
X12528809Y-11610524D01*
X12538333Y-11629571D01*
X12547857Y-11667667D01*
X12547857Y-11715286D01*
X12538333Y-11753381D01*
X12528809Y-11772428D01*
X12519286Y-11781952D01*
X12500238Y-11791476D01*
X12481190Y-11791476D01*
X12462143Y-11781952D01*
X12452619Y-11772428D01*
X12443095Y-11753381D01*
X12433571Y-11715286D01*
X12433571Y-11667667D01*
X12443095Y-11629571D01*
X12452619Y-11610524D01*
X12462143Y-11601000D01*
X12481190Y-11591476D01*
X12728809Y-11591476D02*
X12633571Y-11591476D01*
X12624048Y-11686714D01*
X12633571Y-11677190D01*
X12652619Y-11667667D01*
X12700238Y-11667667D01*
X12719286Y-11677190D01*
X12728809Y-11686714D01*
X12738333Y-11705762D01*
X12738333Y-11753381D01*
X12728809Y-11772428D01*
X12719286Y-11781952D01*
X12700238Y-11791476D01*
X12652619Y-11791476D01*
X12633571Y-11781952D01*
X12624048Y-11772428D01*
X12833571Y-11791476D02*
X12871667Y-11791476D01*
X12890714Y-11781952D01*
X12900238Y-11772428D01*
X12919286Y-11743857D01*
X12928809Y-11705762D01*
X12928809Y-11629571D01*
X12919286Y-11610524D01*
X12909762Y-11601000D01*
X12890714Y-11591476D01*
X12852619Y-11591476D01*
X12833571Y-11601000D01*
X12824048Y-11610524D01*
X12814524Y-11629571D01*
X12814524Y-11677190D01*
X12824048Y-11696238D01*
X12833571Y-11705762D01*
X12852619Y-11715286D01*
X12890714Y-11715286D01*
X12909762Y-11705762D01*
X12919286Y-11696238D01*
X12928809Y-11677190D01*
X13043095Y-11677190D02*
X13024048Y-11667667D01*
X13014524Y-11658143D01*
X13005000Y-11639095D01*
X13005000Y-11629571D01*
X13014524Y-11610524D01*
X13024048Y-11601000D01*
X13043095Y-11591476D01*
X13081190Y-11591476D01*
X13100238Y-11601000D01*
X13109762Y-11610524D01*
X13119286Y-11629571D01*
X13119286Y-11639095D01*
X13109762Y-11658143D01*
X13100238Y-11667667D01*
X13081190Y-11677190D01*
X13043095Y-11677190D01*
X13024048Y-11686714D01*
X13014524Y-11696238D01*
X13005000Y-11715286D01*
X13005000Y-11753381D01*
X13014524Y-11772428D01*
X13024048Y-11781952D01*
X13043095Y-11791476D01*
X13081190Y-11791476D01*
X13100238Y-11781952D01*
X13109762Y-11772428D01*
X13119286Y-11753381D01*
X13119286Y-11715286D01*
X13109762Y-11696238D01*
X13100238Y-11686714D01*
X13081190Y-11677190D01*
X13195476Y-11591476D02*
X13195476Y-11629571D01*
X13271667Y-11591476D02*
X13271667Y-11629571D01*
X13566905Y-11867667D02*
X13557381Y-11858143D01*
X13538333Y-11829571D01*
X13528809Y-11810524D01*
X13519286Y-11781952D01*
X13509762Y-11734333D01*
X13509762Y-11696238D01*
X13519286Y-11648619D01*
X13528809Y-11620048D01*
X13538333Y-11601000D01*
X13557381Y-11572428D01*
X13566905Y-11562905D01*
X13633571Y-11610524D02*
X13643095Y-11601000D01*
X13662143Y-11591476D01*
X13709762Y-11591476D01*
X13728809Y-11601000D01*
X13738333Y-11610524D01*
X13747857Y-11629571D01*
X13747857Y-11648619D01*
X13738333Y-11677190D01*
X13624048Y-11791476D01*
X13747857Y-11791476D01*
X13985952Y-11791476D02*
X13985952Y-11591476D01*
X14071667Y-11791476D02*
X14071667Y-11686714D01*
X14062143Y-11667667D01*
X14043095Y-11658143D01*
X14014524Y-11658143D01*
X13995476Y-11667667D01*
X13985952Y-11677190D01*
X14195476Y-11791476D02*
X14176428Y-11781952D01*
X14166905Y-11772428D01*
X14157381Y-11753381D01*
X14157381Y-11696238D01*
X14166905Y-11677190D01*
X14176428Y-11667667D01*
X14195476Y-11658143D01*
X14224048Y-11658143D01*
X14243095Y-11667667D01*
X14252619Y-11677190D01*
X14262143Y-11696238D01*
X14262143Y-11753381D01*
X14252619Y-11772428D01*
X14243095Y-11781952D01*
X14224048Y-11791476D01*
X14195476Y-11791476D01*
X14376428Y-11791476D02*
X14357381Y-11781952D01*
X14347857Y-11762905D01*
X14347857Y-11591476D01*
X14528809Y-11781952D02*
X14509762Y-11791476D01*
X14471667Y-11791476D01*
X14452619Y-11781952D01*
X14443095Y-11762905D01*
X14443095Y-11686714D01*
X14452619Y-11667667D01*
X14471667Y-11658143D01*
X14509762Y-11658143D01*
X14528809Y-11667667D01*
X14538333Y-11686714D01*
X14538333Y-11705762D01*
X14443095Y-11724809D01*
X14614524Y-11781952D02*
X14633571Y-11791476D01*
X14671667Y-11791476D01*
X14690714Y-11781952D01*
X14700238Y-11762905D01*
X14700238Y-11753381D01*
X14690714Y-11734333D01*
X14671667Y-11724809D01*
X14643095Y-11724809D01*
X14624048Y-11715286D01*
X14614524Y-11696238D01*
X14614524Y-11686714D01*
X14624048Y-11667667D01*
X14643095Y-11658143D01*
X14671667Y-11658143D01*
X14690714Y-11667667D01*
X14766905Y-11867667D02*
X14776428Y-11858143D01*
X14795476Y-11829571D01*
X14805000Y-11810524D01*
X14814524Y-11781952D01*
X14824048Y-11734333D01*
X14824048Y-11696238D01*
X14814524Y-11648619D01*
X14805000Y-11620048D01*
X14795476Y-11601000D01*
X14776428Y-11572428D01*
X14766905Y-11562905D01*
M02*
