M48
; DRILL file {KiCad (6.0.4-0)} date Freitag, 11. November 2022 um 12:05:33
; FORMAT={-:-/ absolute / metric / decimal}
; #@! TF.CreationDate,2022-11-11T12:05:33+01:00
; #@! TF.GenerationSoftware,Kicad,Pcbnew,(6.0.4-0)
; #@! TF.FileFunction,Plated,1,2,PTH
FMAT,2
METRIC
; #@! TA.AperFunction,Plated,PTH,ViaDrill
T1C0.400
; #@! TA.AperFunction,Plated,PTH,ComponentDrill
T2C0.900
; #@! TA.AperFunction,Plated,PTH,ComponentDrill
T3C1.000
; #@! TA.AperFunction,Plated,PTH,ComponentDrill
T4C1.100
; #@! TA.AperFunction,Plated,PTH,ComponentDrill
T5C1.520
%
G90
G05
T1
X114.046Y-91.821
X116.586Y-75.311
X117.81Y-76.408
X121.412Y-86.995
X122.809Y-85.852
X124.206Y-68.961
X125.603Y-86.974
X125.603Y-97.155
X127.381Y-68.961
X133.477Y-84.963
X135.001Y-73.152
X137.414Y-91.059
X142.748Y-52.959
X153.67Y-52.959
X166.751Y-58.166
X174.371Y-42.164
X178.181Y-41.656
X181.229Y-47.752
T2
X149.474Y-48.895
X152.014Y-48.895
X181.526Y-52.67
X182.796Y-52.67
X184.066Y-52.67
X185.336Y-52.67
T3
X114.823Y-96.622
X116.116Y-64.535
X117.363Y-96.622
X118.656Y-64.535
X119.903Y-96.622
X121.196Y-64.535
X123.736Y-64.535
X135.815Y-93.635
X135.815Y-98.135
X137.414Y-82.184
X137.414Y-84.724
X137.414Y-87.264
X138.049Y-74.803
X142.315Y-93.635
X142.315Y-98.135
X159.256Y-46.746
X161.796Y-46.746
X164.336Y-46.746
X166.876Y-46.746
T4
X134.874Y-49.022
X134.874Y-59.182
T5
X139.738Y-46.574
X144.818Y-46.574
T0
M30
